<svg width="725" height="695" viewBox="0 0 725 695" fill="none" xmlns="http://www.w3.org/2000/svg">
<path fill-rule="evenodd" clip-rule="evenodd" d="M847.055 481.697C801.571 483.753 762.66 491.382 730.543 501.906C699.871 512.175 675.484 524.855 655.791 538.699C634.399 553.748 617.714 570.704 600.915 587.774L600.915 587.776L600.912 587.777L600.911 587.78L600.908 587.78C559.859 629.499 518.129 671.907 405.36 688.879C340.681 698.613 263.487 694.71 192.964 678.209C126.11 662.568 70.1036 637.974 37.5795 611.381C-0.20138 580.492 -5.8569 547.382 7.087 518.077C20.6712 487.331 55.4145 461.137 94.9757 435.968C98.2792 433.867 101.609 431.764 104.945 429.659C139.535 407.82 174.791 385.563 188.557 359.138C196.703 343.503 195.697 326.932 186.484 309.961C177.036 292.558 160.587 275.282 143.657 258.159C142.482 256.971 141.306 255.782 140.128 254.593C107.559 221.703 74.5897 188.409 82.1906 155.798C83.9886 148.082 87.3363 140.562 90.6837 133.041L90.6842 133.039L90.685 133.038L90.6855 133.037L90.6863 133.036C94.8006 123.792 98.9147 114.55 100.152 104.95C102.41 87.4144 95.1525 67.3466 62.2034 50.9406C51.1105 45.4164 43.6717 40.5256 42.6608 34.0592C41.6949 27.9014 46.2857 22.0469 54.7375 17.553C76.1721 6.14892 120.438 4.9572 158.029 4.53764C225.665 3.78273 293.45 3.25245 361.233 2.72217L361.239 2.72211L361.249 2.72204L361.255 2.72198L361.262 2.72195L361.268 2.72188L361.274 2.72182L361.28 2.7219L361.286 2.72183L361.292 2.72177L361.299 2.72174L361.305 2.72168L361.311 2.72161L361.317 2.72155L361.323 2.72152L361.329 2.72145L361.335 2.7215L361.34 2.72145C394.596 2.46139 427.85 2.2011 461.086 1.91445C477.294 1.77459 493.497 1.62903 509.703 1.48391L509.732 1.48342C543.358 1.18156 576.983 0.879801 610.639 0.627704C648.101 0.346835 685.856 0.396046 724.143 1.8252C797.198 4.55154 875.437 12.988 935.941 35.1532C1001.96 59.3357 1033.48 92.8974 1062.14 123.413L1062.15 123.417L1062.16 123.43L1062.18 123.458L1062.2 123.478L1062.23 123.506L1062.25 123.532L1062.26 123.54C1063.54 124.905 1064.82 126.264 1066.09 127.617C1102.91 166.678 1134.03 206.08 1159.28 245.55C1183.75 283.814 1204.12 322.451 1215.78 360.563C1225.78 393.258 1224.93 426.83 1184.02 452.549C1166.51 463.559 1142.16 472.818 1111.19 478.414C1074.51 485.04 1030.73 485.314 986.942 484.026C975.64 483.694 964.269 483.267 952.889 482.84L952.886 482.84L952.879 482.84L952.867 482.839L952.857 482.839L952.848 482.838L952.838 482.838L952.829 482.838L952.819 482.837L952.81 482.837C917.069 481.496 881.224 480.151 847.055 481.697ZM728.825 501.102C728.805 501.108 728.785 501.114 728.768 501.12C662.753 523.221 631.725 554.751 600.656 586.326C574.189 613.221 547.691 640.149 499.513 661.308C451.891 682.226 381.726 697.412 297.196 692.511C222.527 688.182 150.288 669.234 98.1067 645.657C-28.1378 588.62 -11.0563 517.08 54.0612 466.09C69.4772 454.018 87.5057 442.627 105.534 431.237C124.76 419.089 143.986 406.943 160.043 393.968C174.814 382.03 186.909 369.371 192.789 355.734C198.876 341.626 197.568 326.784 189.798 311.662C179.426 291.475 159.648 271.637 139.865 251.793C126.322 238.209 112.777 224.621 102.244 210.918C88.9567 193.628 81.1835 176.275 83.9622 159.528C85.4587 150.52 89.3227 141.815 93.1869 133.108L93.1874 133.107C96.6124 125.391 100.038 117.673 101.815 109.744C105.272 94.3142 102.299 77.3109 81.8845 61.5027C77.441 58.0612 72.1919 54.689 66.1134 51.5257C64.8968 50.8916 63.6755 50.2744 62.4689 49.6635C56.5763 46.6819 51.0324 43.8778 48.0594 40.2985C41.9858 32.9918 45.3361 25.5185 53.9341 19.9293C74.5201 6.54567 124.09 5.79856 164.653 5.41898C197.603 5.11063 230.574 4.83405 263.543 4.55751C280.017 4.41935 296.491 4.28116 312.962 4.13909C345.498 3.85821 378.031 3.56969 410.563 3.28092L410.572 3.28053L410.585 3.28058L410.598 3.28063L410.607 3.28036L410.62 3.28041L410.63 3.28013L410.642 3.28018L410.655 3.28024L410.665 3.27996L410.677 3.27989L410.69 3.27994L410.699 3.27967L410.712 3.27972L410.722 3.27944L410.734 3.2795L410.747 3.27955L410.757 3.27927C476.742 2.69372 542.731 2.1084 608.757 1.58803C682.618 1.0062 761.107 1.13306 837.147 12.3636C875.078 17.965 911.193 26.5849 940.969 38.222C973.585 50.968 997.248 66.3256 1016.22 81.8482C1037.23 99.0479 1053.7 116.767 1069.95 134.333C1087.62 153.438 1103.93 172.62 1118.86 191.849C1148.53 230.082 1172.76 268.496 1191.34 306.845L1192.18 308.569C1209.37 344.035 1227.44 381.29 1214.86 414.912C1204.16 443.509 1165.77 470.623 1094.13 479.974C1050.17 485.713 1000.8 483.849 951.32 481.982C909.432 480.401 867.474 478.818 828.684 481.842C790.162 484.847 756.963 491.894 728.882 501.086C728.865 501.091 728.845 501.097 728.825 501.102ZM837.081 470.076C793.638 472.042 756.48 479.327 725.806 489.379C696.517 499.188 673.223 511.299 654.405 524.525C633.964 538.903 618.02 555.102 601.972 571.413L601.972 571.414C562.756 611.263 522.893 651.772 415.164 667.985C353.372 677.288 279.618 673.556 212.238 657.792C148.364 642.849 94.8524 619.351 63.7782 593.944C27.6833 564.431 22.2797 532.799 34.6466 504.8C47.621 475.429 80.8125 450.406 118.605 426.364C121.747 424.366 124.913 422.366 128.085 420.364L128.095 420.358L128.125 420.339C161.168 399.48 194.846 378.218 207.994 352.977C215.772 338.044 214.813 322.221 206.015 306.013C196.989 289.389 181.278 272.886 165.105 256.529C163.982 255.394 162.858 254.259 161.733 253.124L161.727 253.117C130.616 221.698 99.1233 189.896 106.387 158.745C108.107 151.376 111.305 144.193 114.502 137.011L114.502 137.01C118.434 128.177 122.366 119.346 123.547 110.173C125.703 93.4277 118.778 74.2651 87.3156 58.5974C76.7096 53.3169 69.6005 48.6386 68.6314 42.4564C67.7104 36.5732 72.0984 30.9776 80.1733 26.6815C100.662 15.7845 142.948 14.6432 178.875 14.2421C243.532 13.5203 308.335 13.0132 373.134 12.5061L373.137 12.5063L373.14 12.5062L373.143 12.5062L373.146 12.5062L373.149 12.5062L373.153 12.5063L373.156 12.5061L373.159 12.5062L373.165 12.5059L373.169 12.5058L373.175 12.506L373.178 12.5059L373.181 12.5059L373.184 12.5058L373.188 12.5056L373.194 12.5058L373.197 12.5058L373.2 12.5057L373.203 12.5055L373.207 12.5055L373.213 12.5057L373.216 12.5056L373.219 12.5056L373.223 12.5055L373.229 12.5057L373.232 12.5055L373.235 12.5055L373.238 12.5054L373.242 12.5052C404.957 12.2573 436.67 12.0091 468.365 11.7357C483.426 11.6052 498.484 11.4701 513.543 11.3349L513.546 11.3348L513.578 11.3349L513.607 11.3344C546.133 11.0425 578.659 10.7505 611.218 10.5063C647.012 10.2382 683.077 10.2851 719.658 11.6498C789.458 14.2542 864.203 22.3163 922.011 43.4943C985.076 66.5979 1015.19 98.6604 1042.57 127.815C1043.84 129.159 1045.09 130.497 1046.35 131.828C1081.51 169.142 1111.24 206.778 1135.36 244.481C1158.74 281.033 1178.2 317.943 1189.33 354.351C1198.89 385.587 1198.08 417.658 1158.99 442.229C1142.26 452.75 1118.99 461.597 1089.41 466.942C1054.36 473.271 1012.54 473.534 970.706 472.303C959.897 471.984 949.021 471.576 938.135 471.168C903.984 469.886 869.732 468.601 837.081 470.076ZM723.908 488.634C660.931 509.744 631.311 539.845 601.648 569.987C576.368 595.679 551.055 621.401 505.037 641.614C459.557 661.588 392.547 676.092 311.823 671.412C240.513 667.278 171.522 649.183 121.689 626.666C1.11566 572.191 17.4347 503.863 79.6238 455.163C94.3446 443.635 111.56 432.758 128.774 421.883C147.146 410.275 165.517 398.668 180.858 386.269C194.968 374.864 206.526 362.77 212.143 349.744C217.955 336.263 216.706 322.083 209.286 307.632C199.379 288.352 180.489 269.403 161.593 250.45L161.593 250.449C148.655 237.471 135.714 224.49 125.654 211.4C112.961 194.886 105.537 178.312 108.19 162.314C109.619 153.709 113.31 145.394 117.001 137.077C120.272 129.706 123.544 122.334 125.241 114.76C128.544 100.019 125.703 83.7733 106.193 68.6679C101.945 65.3787 96.9275 62.1557 91.1232 59.1332C89.9612 58.5281 88.7952 57.9378 87.6428 57.3547C82.0215 54.5113 76.7328 51.8346 73.8925 48.4195C68.0945 41.4472 71.2931 34.3121 79.4957 28.9766C99.1522 16.1972 146.489 15.4851 185.223 15.122C216.984 14.8252 248.764 14.5581 280.545 14.291L280.602 14.2906C296.031 14.1609 311.462 14.0313 326.89 13.8982C357.971 13.63 389.048 13.3543 420.124 13.0786L420.191 13.078C483.262 12.5184 546.33 11.9585 609.441 11.4625C679.985 10.9059 754.95 11.0277 827.578 21.754C863.796 27.1032 898.289 35.333 926.726 46.4463C957.874 58.6205 980.473 73.287 998.59 88.1133C1018.67 104.541 1034.39 121.466 1049.91 138.242C1066.79 156.491 1082.37 174.816 1096.63 193.184C1124.98 229.707 1148.12 266.4 1165.87 303.03L1166.67 304.685C1183.09 338.557 1200.34 374.137 1188.33 406.248C1178.11 433.56 1141.44 459.455 1073.03 468.386C1031.04 473.866 983.877 472.086 936.619 470.303C896.607 468.792 856.531 467.28 819.482 470.169C782.631 473.044 750.877 479.788 724.027 488.587C723.983 488.602 723.942 488.618 723.908 488.634ZM721.074 476.851C750.302 467.274 785.711 460.33 827.105 458.457C858.223 457.05 890.867 458.277 923.417 459.498L923.426 459.499L923.435 459.498L923.442 459.499L923.451 459.499L923.461 459.5L923.47 459.5L923.476 459.5L923.486 459.5L923.496 459.5L923.505 459.501L923.514 459.501L923.521 459.502L923.53 459.501L923.54 459.502L923.549 459.502L923.558 459.503L923.565 459.503L923.574 459.504L923.584 459.503C933.905 459.892 944.217 460.278 954.463 460.579C994.342 461.754 1034.21 461.503 1067.61 455.469C1095.82 450.372 1118 441.939 1133.96 431.906C1171.21 408.485 1172 377.914 1162.89 348.139C1152.28 313.436 1133.73 278.254 1111.44 243.414C1088.46 207.479 1060.12 171.606 1026.6 136.041C1025.41 134.773 1024.21 133.499 1023.01 132.218C996.904 104.426 968.193 73.8613 908.075 51.8355C852.965 31.6449 781.708 23.9571 715.166 21.4725C680.297 20.1706 645.911 20.1259 611.795 20.381C581.327 20.6087 550.889 20.8818 520.451 21.155C505.513 21.2886 490.578 21.4227 475.638 21.5513C445.421 21.812 415.186 22.0484 384.951 22.2852C323.163 22.7688 261.371 23.2524 199.717 23.9408C165.459 24.3235 125.143 25.4127 105.605 35.8043C97.9006 39.9008 93.7158 45.2374 94.5945 50.8504C95.517 56.7485 102.3 61.2128 112.42 66.251C142.395 81.1779 148.989 99.4369 146.939 115.392C145.813 124.135 142.067 132.55 138.32 140.968C135.272 147.814 132.224 154.662 130.585 161.687C123.663 191.381 153.682 221.697 183.337 251.646L185.26 253.587L186.552 254.895C201.965 270.483 216.944 286.213 225.548 302.059C233.934 317.504 234.848 332.582 227.435 346.811C214.903 370.865 182.813 391.125 151.326 411.004C148.287 412.922 145.254 414.838 142.244 416.752C106.219 439.668 74.5813 463.521 62.2165 491.517C50.4265 518.21 55.5787 548.364 89.9904 576.499C119.614 600.722 170.633 623.123 231.527 637.369C295.76 652.396 366.082 655.953 424.991 647.087C527.679 631.631 565.676 593.019 603.059 555.036C618.356 539.491 633.553 524.05 653.036 510.344C670.962 497.74 693.157 486.199 721.074 476.851ZM719.299 476.065C719.313 476.06 719.329 476.055 719.346 476.05C719.366 476.044 719.386 476.038 719.409 476.034C744.991 467.661 775.227 461.245 810.315 458.509C845.628 455.757 883.82 457.198 921.953 458.637C966.995 460.337 1011.95 462.034 1051.97 456.811C1117.16 448.298 1152.1 423.62 1161.84 397.594C1173.28 366.997 1156.84 333.09 1141.2 300.814L1140.43 299.226C1123.5 264.311 1101.45 229.338 1074.43 194.529C1060.85 177.021 1045.99 159.556 1029.91 142.161C1015.12 126.173 1000.13 110.042 980.999 94.3874C963.732 80.2569 942.193 66.2801 912.507 54.6769C885.413 44.0884 852.542 36.2465 818.03 31.1495C748.817 20.9278 677.374 20.8123 610.148 21.342C550.319 21.8138 490.527 22.3441 430.736 22.8745L430.679 22.8748L430.66 22.8751L430.612 22.8754L430.602 22.8757C400.683 23.1411 370.763 23.4065 340.838 23.6645C326.12 23.7913 311.4 23.9148 296.681 24.0383L296.672 24.0383L296.664 24.0384C266.374 24.2924 236.084 24.5465 205.811 24.8304C168.91 25.175 123.801 25.8522 105.075 38.0272C97.2561 43.1074 94.2124 49.9029 99.736 56.5428C102.438 59.7917 107.472 62.3389 112.82 65.0451L112.827 65.0482C113.925 65.6046 115.036 66.167 116.143 66.743C121.68 69.6264 126.465 72.6992 130.518 75.836C149.118 90.2368 151.831 105.725 148.679 119.78C147.062 126.998 143.943 134.024 140.825 141.049L140.824 141.05C137.306 148.977 133.787 156.904 132.426 165.105C129.891 180.35 136.969 196.144 149.065 211.883C158.653 224.359 170.985 236.729 183.315 249.097C201.327 267.164 219.334 285.226 228.776 303.605C235.853 317.382 237.043 330.899 231.501 343.753C226.148 356.171 215.128 367.7 201.678 378.572C187.059 390.387 169.551 401.447 152.044 412.508L152.042 412.509L152.041 412.51L152.039 412.511L152.037 412.512L152.035 412.513L152.033 412.514C135.626 422.88 119.217 433.247 105.187 444.235C45.9247 490.643 30.3676 555.76 145.269 607.672C192.759 629.127 258.502 646.369 326.454 650.31C403.373 654.77 467.224 640.947 510.561 621.916C554.422 602.65 578.548 578.134 602.647 553.647C630.938 524.898 659.19 496.188 719.299 476.065ZM817.131 446.84C777.784 448.618 744.128 455.219 716.344 464.324C689.8 473.209 668.7 484.184 651.658 496.164C633.13 509.196 618.683 523.877 604.134 538.657C568.586 574.777 532.452 611.491 434.802 626.19C378.774 634.621 311.898 631.24 250.808 616.949C192.894 603.4 144.37 582.095 116.196 559.058C83.4686 532.303 78.5648 503.624 89.7796 478.238C101.54 451.617 131.622 428.937 165.878 407.145C168.739 405.326 171.622 403.506 174.511 401.682C204.45 382.781 234.962 363.519 246.875 340.648C253.923 327.124 253.052 312.788 245.083 298.109C236.907 283.043 222.664 268.087 208.01 253.265C207.512 252.761 207.014 252.259 206.516 251.755L204.96 250.182C176.76 221.705 148.211 192.873 154.793 164.635C156.351 157.957 159.249 151.446 162.147 144.937L162.148 144.936C165.711 136.932 169.274 128.929 170.345 120.617C172.3 105.454 166.037 88.098 137.544 73.9101C127.912 69.1112 121.457 64.8633 120.575 59.247C119.735 53.9069 123.722 48.8295 131.049 44.9309C149.632 35.0466 187.978 34.0075 220.567 33.6435C279.12 32.9908 337.802 32.5314 396.482 32.0719C425.299 31.8466 454.114 31.6208 482.917 31.3727C497.295 31.249 511.667 31.1199 526.042 30.9914L526.045 30.9912L526.048 30.9911L526.054 30.9913L526.058 30.9912L526.061 30.991L526.064 30.9909L526.07 30.9912L526.073 30.9911L526.077 30.991L526.08 30.9908L526.086 30.991L526.089 30.9909L526.093 30.9909L526.096 30.9907L526.102 30.9909L526.105 30.9908L526.108 30.9907L526.112 30.9905C554.859 30.7329 583.606 30.4754 612.378 30.2594C644.826 30.0153 677.527 30.06 710.686 31.2972C773.971 33.6602 841.737 40.9733 894.149 60.1765C951.323 81.1235 978.625 110.189 1003.45 136.62L1003.46 136.627C1004.6 137.841 1005.73 139.05 1006.87 140.252C1038.73 174.068 1065.67 208.177 1087.53 242.345C1108.73 275.475 1126.36 308.928 1136.45 341.926C1145.11 370.242 1144.36 399.312 1108.94 421.586C1093.76 431.127 1072.66 439.148 1045.83 443.995C1014.06 449.734 976.151 449.973 938.23 448.857C928.422 448.569 918.555 448.198 908.676 447.828L908.672 447.828L908.669 447.828L908.669 447.829L908.666 447.828C877.734 446.668 846.705 445.503 817.131 446.84ZM714.512 463.556C657.395 482.689 630.541 509.978 603.649 537.304C580.734 560.589 557.793 583.901 516.081 602.22C474.89 620.31 414.194 633.451 341.078 629.212C276.485 625.467 213.995 609.077 168.847 588.681C59.615 539.33 74.4077 477.428 130.744 433.308C144.087 422.859 159.69 413.002 175.293 403.144C191.941 392.626 208.589 382.107 222.489 370.873C235.282 360.534 245.757 349.572 250.855 337.762C256.128 325.538 254.995 312.68 248.266 299.577C239.29 282.106 222.174 264.939 205.053 247.766L205.053 247.765L205.052 247.764L205.051 247.763L205.05 247.761L205.049 247.76L205.048 247.759L205.047 247.757L205.046 247.756L205.045 247.755C193.32 235.993 181.592 224.229 172.474 212.365C160.974 197.403 154.25 182.388 156.656 167.894C157.95 160.096 161.295 152.56 164.64 145.023C167.605 138.343 170.57 131.662 172.108 124.798C175.103 111.429 172.522 96.6992 154.828 83.0025C150.975 80.0185 146.421 77.0949 141.149 74.3511C140.098 73.8044 139.043 73.2713 138.002 72.7442C132.917 70.1718 128.132 67.7522 125.564 64.6644C120.315 58.3566 123.208 51.9012 130.633 47.0766C148.435 35.5058 191.311 34.8637 226.381 34.5354C255.173 34.2657 283.982 34.0242 312.791 33.7826L312.796 33.7826L312.8 33.7825L312.805 33.7825L312.81 33.7825L312.814 33.7825L312.819 33.7824L312.823 33.7824L312.828 33.7823L312.833 33.7823L312.837 33.7822L312.842 33.7822L312.846 33.7822L312.851 33.7821L312.855 33.7821L312.86 33.782L312.865 33.7821L312.869 33.7819L312.874 33.782C326.84 33.6648 340.806 33.5478 354.77 33.4275C383.162 33.1828 411.55 32.9308 439.937 32.6789L439.979 32.6786L440.02 32.6783L440.109 32.6774L440.134 32.6772C497.024 32.1726 553.911 31.6677 610.832 31.2201C674.744 30.7174 742.659 30.8243 808.458 40.5419C841.261 45.3865 872.506 52.8408 898.26 62.9048C926.485 73.9346 946.954 87.2222 963.37 100.657C981.56 115.541 995.808 130.875 1009.87 146.075C1025.16 162.614 1039.29 179.221 1052.2 195.865C1077.89 228.964 1098.86 262.217 1114.95 295.415L1115.69 296.932C1130.56 327.616 1146.19 359.848 1135.31 388.936C1126.05 413.677 1092.84 437.138 1030.87 445.227C992.828 450.194 950.085 448.581 907.261 446.963C871.007 445.595 834.691 444.224 801.117 446.842C767.702 449.447 738.91 455.562 714.56 463.54C714.543 463.545 714.529 463.551 714.512 463.556ZM711.608 451.796C737.95 443.166 769.851 436.907 807.157 435.221C835.215 433.953 864.652 435.058 894.004 436.159C903.357 436.51 912.704 436.861 921.994 437.134C957.96 438.192 993.919 437.965 1024.04 432.523C1049.5 427.926 1069.52 420.317 1083.91 411.266C1117.51 390.141 1118.22 362.571 1110.01 335.716C1100.44 304.42 1083.71 272.695 1063.61 241.276C1042.88 208.874 1017.33 176.53 987.119 144.463C986.043 143.321 984.964 142.173 983.88 141.019C960.336 115.952 934.441 88.3834 880.219 68.5177C830.506 50.3036 766.234 43.3632 706.201 41.1218C674.748 39.9473 643.737 39.9067 612.964 40.1363C585.282 40.3429 557.628 40.5912 529.974 40.8395L529.968 40.8396C516.711 40.9585 503.455 41.0773 490.199 41.192C462.909 41.4272 435.604 41.6407 408.302 41.8545C352.634 42.2899 296.964 42.7255 241.416 43.3459C210.492 43.6916 174.12 44.6784 156.489 54.0574C149.532 57.7564 145.755 62.577 146.546 67.6449C147.381 72.9774 153.512 77.0116 162.661 81.5674C189.668 95.0158 195.598 111.467 193.745 125.84C192.729 133.721 189.352 141.309 185.975 148.898C183.226 155.072 180.478 161.248 179.001 167.584C172.756 194.361 199.829 221.702 226.57 248.707C227.537 249.684 228.503 250.66 229.467 251.635C243.366 265.693 256.87 279.874 264.624 294.161C272.177 308.076 273.002 321.666 266.326 334.487C255.027 356.174 226.099 374.438 197.713 392.36L197.712 392.361C194.973 394.089 192.24 395.816 189.527 397.541C157.044 418.206 128.509 439.716 117.36 464.962C106.722 489.043 111.375 516.243 142.414 541.622C169.139 563.474 215.167 583.68 270.103 596.531C328.049 610.085 391.486 613.293 444.632 605.295C537.241 591.356 571.508 556.541 605.221 522.287C619.019 508.27 632.721 494.347 650.291 481.988C666.439 470.627 686.446 460.221 711.608 451.796ZM709.83 451.01C709.864 451.001 709.894 450.991 709.927 450.982C733.006 443.427 760.296 437.64 791.952 435.171C823.782 432.691 858.216 433.991 892.59 435.289C933.201 436.822 973.734 438.351 1009.81 433.643C1068.56 425.971 1100.04 403.728 1108.81 380.273C1119.13 352.698 1104.32 322.141 1090.22 293.053L1090.21 293.053L1089.51 291.604C1074.25 260.124 1054.37 228.59 1030.01 197.204C1017.76 181.418 1004.37 165.673 989.859 149.988C976.531 135.576 963.021 121.037 945.777 106.925C930.213 94.1887 910.802 81.5905 884.042 71.1321C859.627 61.5903 830.011 54.5262 798.914 49.9337C736.533 40.7205 672.133 40.6182 611.542 41.0959C556.984 41.5263 502.459 42.01 447.934 42.4935L447.896 42.4938L447.858 42.4941C421.479 42.728 395.103 42.9622 368.719 43.1899C354.892 43.3097 341.061 43.426 327.231 43.5421L327.21 43.5422C300.459 43.767 273.708 43.9917 246.973 44.2419C213.732 44.5518 173.087 45.1569 156.215 56.1258C149.183 60.6984 146.443 66.8107 151.413 72.787C153.843 75.7088 158.373 78 163.184 80.434L163.187 80.4355C164.176 80.936 165.177 81.4425 166.174 81.9615C171.173 84.5645 175.496 87.339 179.154 90.1718C195.932 103.163 198.388 117.137 195.547 129.818C194.088 136.328 191.276 142.665 188.464 149.001C185.292 156.146 182.12 163.292 180.892 170.684C178.609 184.427 184.989 198.663 195.891 212.849C204.536 224.098 215.656 235.253 226.773 246.404C243.012 262.694 259.246 278.98 267.761 295.55C274.148 307.978 275.222 320.176 270.219 331.771C265.386 342.973 255.447 353.37 243.315 363.175C230.135 373.826 214.352 383.798 198.567 393.77C183.768 403.12 168.967 412.47 156.312 422.381C102.903 464.208 88.8722 522.899 192.433 569.686C235.234 589.023 294.472 604.561 355.712 608.112C425.022 612.131 482.562 599.673 521.608 582.524C560.53 565.429 581.993 543.443 603.189 521.73C605.503 519.363 607.81 516.997 610.138 514.643C633.617 490.887 660.637 467.48 709.83 451.01ZM797.181 423.601C761.924 425.196 731.769 431.111 706.875 439.268C683.089 447.233 664.178 457.07 648.9 467.806C632.285 479.491 619.327 492.655 606.283 505.908L606.283 505.909C574.403 538.296 542.002 571.213 454.431 584.393C404.173 591.96 344.178 588.926 289.37 576.106C237.411 563.954 193.877 544.845 168.603 524.177C139.246 500.175 134.845 474.453 144.906 451.68C155.45 427.809 182.428 407.471 213.144 387.931C215.703 386.303 218.283 384.676 220.867 383.044C247.71 366.099 275.068 348.829 285.75 328.322C292.065 316.205 291.286 303.362 284.144 290.209C276.813 276.702 264.042 263.294 250.904 250.004C249.994 249.083 249.081 248.162 248.168 247.239C222.883 221.704 197.284 195.851 203.188 170.529C204.585 164.54 207.183 158.701 209.782 152.865C212.976 145.689 216.169 138.515 217.13 131.063C218.877 117.481 213.28 101.934 187.759 89.225C179.095 84.9116 173.296 81.0907 172.503 76.0424C171.755 71.2473 175.334 66.6858 181.914 63.1841C198.6 54.3124 232.996 53.3759 262.251 53.0487C314.701 52.464 367.268 52.0527 419.832 51.6414L419.867 51.6412C445.739 51.4389 471.609 51.2362 497.465 51.0132C510.168 50.9039 522.865 50.7898 535.562 50.6758C561.547 50.4428 587.53 50.2097 613.537 50.0147C642.639 49.7965 671.964 49.8365 701.709 50.9463C758.484 53.066 819.265 59.6319 866.286 76.8592C917.565 95.6477 942.047 121.716 964.314 145.423L964.322 145.431C965.344 146.518 966.361 147.6 967.375 148.677C995.944 178.994 1020.1 209.576 1039.7 240.209C1058.7 269.916 1074.51 299.913 1083.56 329.502C1091.33 354.898 1090.65 380.968 1058.88 400.944C1045.26 409.504 1026.32 416.699 1002.25 421.049C973.762 426.195 939.764 426.41 905.752 425.409C896.957 425.151 888.109 424.819 879.251 424.486C851.517 423.446 823.697 422.403 797.181 423.601ZM705.033 438.505C658.552 454.079 633.023 476.201 610.826 498.654C608.621 500.886 606.433 503.126 604.245 505.369C584.206 525.891 563.921 546.67 527.128 562.829C490.228 579.036 435.844 590.811 370.339 587.014C312.452 583.657 256.469 568.97 216.015 550.695C118.126 506.47 131.389 450.991 181.876 411.455C193.84 402.086 207.831 393.246 221.822 384.407C236.746 374.979 251.669 365.551 264.131 355.479C275.607 346.206 285.004 336.374 289.574 325.783C294.307 314.814 293.292 303.28 287.251 291.522C279.201 275.854 263.85 260.456 248.495 245.054C237.983 234.512 227.471 223.967 219.296 213.333C208.988 199.921 202.959 186.465 205.117 173.474C206.278 166.483 209.276 159.727 212.274 152.972C214.933 146.981 217.592 140.99 218.97 134.836C221.655 122.841 219.331 109.626 203.463 97.3382C200.001 94.6589 195.914 92.033 191.179 89.5696C190.24 89.0801 189.297 88.6043 188.366 88.1331C183.818 85.8341 179.537 83.6693 177.241 80.9086C172.546 75.2644 175.135 69.492 181.774 65.1742C197.715 54.8105 236.134 54.2421 267.539 53.9469C292.809 53.7108 318.097 53.4984 343.383 53.2861L343.394 53.2859C356.479 53.176 369.565 53.0662 382.646 52.9529C407.601 52.7376 432.549 52.5162 457.498 52.2947C509.064 51.8375 560.627 51.3798 612.226 50.9738C669.503 50.5232 730.379 50.6172 789.344 59.3258C818.729 63.666 846.729 70.3425 869.798 79.3597C895.097 89.2471 913.441 101.154 928.154 113.194C944.457 126.534 957.228 140.278 969.83 153.901C983.545 168.729 996.206 183.618 1007.79 198.542C1030.82 228.219 1049.62 258.031 1064.05 287.795L1064.7 289.138C1078.04 316.644 1092.05 345.54 1082.29 371.615C1074 393.785 1044.26 414.809 988.713 422.06C954.614 426.511 916.295 425.064 877.904 423.614L877.901 423.615C845.403 422.388 812.851 421.159 782.761 423.504C752.78 425.841 726.941 431.325 705.094 438.483C705.074 438.49 705.053 438.498 705.033 438.505ZM702.145 426.742C725.595 419.057 754 413.483 787.207 411.982C812.186 410.852 838.391 411.835 864.52 412.816L864.526 412.816L864.529 412.817C872.879 413.13 881.223 413.443 889.516 413.686C921.573 414.629 953.617 414.427 980.469 409.575C1003.16 405.476 1021.02 398.695 1033.85 390.622C1063.8 371.795 1064.44 347.226 1057.13 323.29C1048.6 295.405 1033.7 267.137 1015.79 239.14C997.322 210.274 974.554 181.456 947.638 152.889C946.683 151.875 945.726 150.856 944.763 149.831L944.758 149.825C923.771 127.482 900.695 102.911 852.362 85.2024C808.04 68.9624 750.753 62.7709 697.229 60.7728C669.197 59.7257 641.557 59.6897 614.129 59.8952C589.208 60.0825 564.306 60.3058 539.405 60.5291L539.392 60.5292C527.846 60.6326 516.302 60.7363 504.756 60.8363C480.396 61.0465 456.024 61.2372 431.652 61.428L431.639 61.4282C382.093 61.8159 332.548 62.2038 283.109 62.755C255.523 63.0637 223.095 63.9487 207.366 72.3146C201.157 75.6163 197.782 79.9205 198.491 84.4433C199.238 89.2079 204.712 92.8162 212.889 96.8871C236.923 108.857 242.188 123.499 240.543 136.29C239.639 143.312 236.63 150.072 233.62 156.834C231.171 162.335 228.722 167.837 227.406 173.479C221.842 197.351 245.98 221.724 269.821 245.798C270.672 246.658 271.523 247.517 272.372 248.376C284.753 260.9 296.788 273.533 303.697 286.262C310.423 298.651 311.157 310.749 305.212 322.163C295.152 341.48 269.384 357.747 244.1 373.709L244.09 373.715C241.651 375.254 239.218 376.791 236.803 378.327C207.857 396.742 182.431 415.909 172.497 438.404C163.016 459.87 167.162 484.116 194.832 506.743C218.656 526.224 259.697 544.237 308.677 555.691C360.337 567.774 416.89 570.632 464.269 563.501C546.807 551.078 577.345 520.057 607.39 489.533C619.681 477.046 631.89 464.642 647.543 453.63C661.913 443.512 679.732 434.245 702.145 426.742ZM611.515 482.666C632.429 461.509 656.489 440.665 700.277 425.987C700.29 425.981 700.304 425.975 700.317 425.97C700.331 425.965 700.345 425.96 700.361 425.956C720.952 419.208 745.307 414.034 773.573 411.837C801.923 409.631 832.582 410.789 863.195 411.944C899.379 413.309 935.49 414.673 967.63 410.477C1019.95 403.645 1047.97 383.839 1055.78 362.954C1064.96 338.391 1051.76 311.169 1039.2 285.259L1038.58 283.982C1024.99 255.935 1007.27 227.841 985.567 199.879C974.652 185.816 962.719 171.785 949.798 157.813C937.926 144.978 925.893 132.029 910.536 119.461C896.676 108.117 879.393 96.8979 855.558 87.5838C833.828 79.0909 807.454 72.8045 779.775 68.7164C724.222 60.5121 666.871 60.4231 612.911 60.8484C564.534 61.2292 516.191 61.6584 467.844 62.0874L467.828 62.0877L467.822 62.0876L467.806 62.0879L467.8 62.0878L467.733 62.0884L467.666 62.0891L467.599 62.0896C443.928 62.2998 420.254 62.5097 396.577 62.7141C385.085 62.813 373.594 62.9094 362.099 63.0055L362.071 63.0058L362.065 63.0059L362.058 63.0058L362.055 63.006L362.049 63.0059L362.042 63.0059L362.039 63.0062L362.033 63.0061L362.026 63.006L362.023 63.0063L362.017 63.0062L362.01 63.0062L362.007 63.0065L362.001 63.0064L361.995 63.0063C337.362 63.2128 312.729 63.4192 288.109 63.6501C258.533 63.9272 222.347 64.4601 207.335 74.2206C201.09 78.2812 198.653 83.7162 203.072 89.0259C205.23 91.6216 209.256 93.6569 213.531 95.8175L213.535 95.8203C214.413 96.2638 215.302 96.7129 216.187 97.1734C220.653 99.4964 224.512 101.971 227.775 104.499C242.738 116.085 244.936 128.543 242.401 139.85C241.102 145.65 238.596 151.296 236.09 156.942C233.264 163.308 230.438 169.673 229.345 176.258C227.311 188.497 232.995 201.175 242.704 213.81C250.407 223.832 260.313 233.769 270.219 243.705L270.22 243.706L270.221 243.708L270.222 243.709L270.223 243.71C284.69 258.22 299.153 272.727 306.737 287.488C312.43 298.572 313.383 309.446 308.925 319.786C304.619 329.769 295.76 339.036 284.945 347.776C273.199 357.269 259.133 366.157 245.066 375.045L245.065 375.046L245.064 375.047L245.063 375.048L245.061 375.049L245.06 375.05L245.058 375.051C231.881 383.376 218.705 391.7 207.437 400.524C159.874 437.769 147.376 490.036 239.591 531.699C277.704 548.918 330.44 562.751 384.967 565.912C446.66 569.489 497.895 558.397 532.648 543.132C567.329 527.902 586.448 508.317 605.332 488.975C607.39 486.867 609.443 484.762 611.515 482.666ZM777.233 400.363C746.067 401.772 719.414 407.002 697.409 414.215C676.375 421.256 659.652 429.955 646.154 439.457C631.455 449.796 619.991 461.442 608.45 473.165C580.241 501.821 551.573 530.944 474.076 542.609C429.582 549.307 376.465 546.622 327.952 535.275C281.957 524.52 243.405 507.604 221.032 489.307C195.044 468.059 191.149 445.291 200.053 425.131C209.383 404.011 233.257 386.014 260.435 368.726C262.701 367.285 264.984 365.843 267.272 364.4C291.011 349.414 315.201 334.141 324.65 316.006C330.234 305.297 329.539 293.942 323.229 282.318C316.743 270.368 305.451 258.506 293.827 246.75C293.055 245.97 292.281 245.189 291.507 244.406L291.496 244.396L291.485 244.384L291.474 244.373L291.463 244.361L291.427 244.324C269.044 221.723 246.383 198.84 251.61 176.43C252.844 171.131 255.144 165.965 257.442 160.8C260.267 154.453 263.091 148.108 263.939 141.518C265.485 129.517 260.55 115.776 238.004 104.548C230.312 100.718 225.164 97.3247 224.464 92.8449C223.798 88.5949 226.974 84.5461 232.807 81.4452C247.586 73.5833 278.038 72.7492 303.959 72.459C350.392 71.9402 396.926 71.5762 443.456 71.2121C466.322 71.0334 489.185 70.8544 512.038 70.6574C523.066 70.5621 534.091 70.463 545.117 70.364C568.308 70.1559 591.5 69.9473 614.711 69.7735C640.471 69.5807 666.427 69.6168 692.749 70.599C743.016 72.4756 796.818 78.2942 838.435 93.545C883.818 110.175 905.488 133.246 925.198 154.229C926.101 155.192 926.999 156.149 927.898 157.102C953.167 183.922 974.536 210.972 991.875 238.073C1008.69 264.356 1022.68 290.899 1030.68 317.078C1037.56 339.552 1036.95 362.621 1008.83 380.3C996.765 387.882 979.998 394.251 958.682 398.101C933.47 402.655 903.379 402.848 873.28 401.962C865.493 401.733 857.663 401.439 849.823 401.145C825.293 400.224 800.687 399.301 777.233 400.363ZM695.728 413.4C695.695 413.408 695.665 413.418 695.631 413.428C654.461 427.21 631.851 446.796 612.2 466.677C610.263 468.639 608.336 470.611 606.409 472.584L606.394 472.599L606.382 472.614C588.658 490.765 570.717 509.143 538.172 523.436C505.558 537.758 457.485 548.168 399.601 544.814C348.43 541.846 298.943 528.864 263.177 512.708C176.634 473.607 188.369 424.552 233.006 389.599C243.587 381.312 255.961 373.494 268.335 365.676L268.336 365.675L268.338 365.674L268.34 365.673L268.342 365.672L268.344 365.671L268.345 365.67L268.346 365.669L268.348 365.668L268.349 365.667L268.35 365.666L268.353 365.665L268.354 365.664L268.355 365.663L268.356 365.662C281.554 357.323 294.751 348.986 305.772 340.08C315.924 331.874 324.25 323.174 328.292 313.8C332.479 304.087 331.585 293.874 326.234 283.464C319.114 269.605 305.535 255.983 291.951 242.358L291.949 242.357C282.651 233.031 273.351 223.703 266.121 214.296C257.006 202.437 251.677 190.539 253.586 179.051C254.612 172.868 257.264 166.892 259.917 160.916C262.269 155.616 264.621 150.316 265.84 144.872C268.22 134.251 266.154 122.55 252.101 111.67C249.032 109.293 245.394 106.973 241.212 104.785C240.347 104.332 239.476 103.892 238.617 103.456C234.656 101.451 230.927 99.5626 228.921 97.1508C224.781 92.1738 227.059 87.0789 232.918 83.2704C247 74.1154 280.959 73.6175 308.705 73.3559C331.31 73.1446 353.931 72.9548 376.548 72.7646L376.573 72.7643L376.602 72.7643C387.912 72.6692 399.223 72.5742 410.533 72.4766C432.811 72.2842 455.087 72.0865 477.363 71.8889C522.777 71.4864 568.186 71.0836 613.624 70.7257C664.269 70.3275 718.093 70.4079 770.228 78.1078C796.201 81.9436 820.946 87.8424 841.34 95.811C863.707 104.553 879.929 115.083 892.939 125.729C907.357 137.526 918.649 149.68 929.791 161.726C941.923 174.845 953.123 188.013 963.371 201.216C983.745 227.468 1000.38 253.841 1013.14 280.17L1013.73 281.378C1025.52 305.693 1037.9 331.24 1029.28 354.294C1021.95 373.892 995.67 392.482 946.562 398.892C916.399 402.829 882.498 401.55 848.531 400.269C819.798 399.184 791.018 398.098 764.411 400.167C737.901 402.229 715.051 407.077 695.728 413.4ZM692.679 401.687C713.236 394.95 738.14 390.06 767.257 388.743C789.178 387.751 812.176 388.615 835.105 389.476C842.436 389.75 849.759 390.025 857.037 390.239C885.179 391.065 913.316 390.888 936.891 386.628C956.83 383.027 972.514 377.072 983.792 369.98C1010.08 353.45 1010.66 331.88 1004.23 310.864C996.747 286.389 983.67 261.576 967.951 237.002C951.747 211.67 931.769 186.383 908.146 161.312C907.664 160.801 907.185 160.29 906.701 159.776L905.623 158.627C887.196 139.008 866.933 117.435 824.494 101.883C785.572 87.6191 735.261 82.1751 688.251 80.4202C663.638 79.5011 639.364 79.4669 615.285 79.6486C593.755 79.8101 572.244 80.0033 550.734 80.1966L550.718 80.1967L550.712 80.1967L550.705 80.1968L550.699 80.1968C540.233 80.2906 529.77 80.3848 519.302 80.4749C497.901 80.66 476.483 80.8274 455.066 80.995L455.053 80.9951L455.041 80.9953L455.028 80.9954L455.012 80.9952L454.999 80.9954L454.987 80.9956L454.974 80.9958L454.971 80.9958L454.968 80.9958L454.964 80.9957L454.961 80.9957L454.958 80.9958L454.955 80.9959C411.539 81.3357 368.12 81.6753 324.797 82.1584C300.543 82.4281 272.061 83.2118 258.234 90.5684C252.773 93.4718 249.806 97.2602 250.428 101.239C251.087 105.436 255.904 108.615 263.109 112.201C284.169 122.692 288.771 135.528 287.332 146.737C286.538 152.899 283.898 158.83 281.257 164.764C279.108 169.592 276.959 174.42 275.804 179.373C270.918 200.326 292.106 221.721 313.033 242.854L313.09 242.912C313.818 243.647 314.545 244.381 315.271 245.115C326.138 256.105 336.693 267.194 342.757 278.362C348.655 289.223 349.298 299.832 344.086 309.838C335.258 326.784 312.648 341.058 290.466 355.063L290.458 355.068L290.45 355.073C288.313 356.422 286.181 357.768 284.065 359.114C258.659 375.277 236.338 392.102 227.615 411.849C219.287 430.702 222.931 451.991 247.235 471.864C268.158 488.973 304.216 504.793 347.229 514.851C392.604 525.462 442.275 527.973 483.89 521.71C556.35 510.803 583.156 483.576 609.532 456.784C620.321 445.826 631.038 434.941 644.776 425.274C657.391 416.398 673.017 408.269 692.679 401.687ZM612.892 450.69C631.26 432.108 652.39 413.802 690.858 400.916C690.871 400.91 690.888 400.904 690.905 400.898C708.993 394.971 730.395 390.428 755.227 388.498C780.094 386.565 806.998 387.58 833.854 388.593C865.602 389.79 897.289 390.986 925.479 387.306C971.358 381.317 995.916 363.945 1002.77 345.631C1010.82 324.09 999.245 300.218 988.226 277.494L987.676 276.357C975.746 251.744 960.199 227.09 941.154 202.552C931.575 190.21 921.103 177.898 909.763 165.636C899.354 154.377 888.8 143.019 875.327 131.995C863.167 122.044 848.012 112.206 827.103 104.035C808.053 96.5887 784.936 91.0802 760.669 87.4965C711.945 80.3007 661.64 80.2247 614.315 80.5981C572.11 80.9306 529.929 81.3049 487.748 81.6791C466.657 81.8664 445.567 82.0538 424.471 82.2355C413.929 82.3272 403.385 82.4157 392.84 82.5042L392.735 82.5049L392.71 82.5045C371.564 82.6825 350.415 82.8602 329.283 83.0572C303.366 83.3 271.645 83.7628 258.487 92.3141C253.022 95.8666 250.894 100.622 254.76 105.265C256.632 107.517 260.112 109.278 263.809 111.149C264.609 111.556 265.421 111.966 266.228 112.387C270.146 114.436 273.547 116.606 276.421 118.83C289.568 129.007 291.504 139.951 289.279 149.883C288.138 154.971 285.941 159.921 283.743 164.872C281.262 170.461 278.781 176.051 277.821 181.834C276.037 192.572 281.02 203.689 289.537 214.774C296.297 223.57 304.991 232.29 313.684 241.009L313.685 241.011C326.382 253.746 339.074 266.477 345.731 279.432C350.729 289.17 351.571 298.72 347.651 307.804C343.871 316.571 336.088 324.707 326.59 332.38C316.283 340.711 303.939 348.511 291.593 356.31C280.028 363.617 268.462 370.924 258.572 378.67C216.861 411.334 205.891 457.176 286.763 493.713C320.181 508.811 366.42 520.941 414.231 523.713C468.313 526.849 513.23 517.121 543.699 503.741C574.126 490.376 590.903 473.19 607.474 456.214C609.277 454.369 611.077 452.525 612.892 450.69ZM757.283 377.124C730.21 378.349 707.062 382.895 687.946 389.159C669.66 395.28 655.129 402.841 643.389 411.093C630.602 420.087 620.632 430.213 610.594 440.408C586.053 465.332 561.114 490.662 493.696 500.809C454.968 506.638 408.736 504.302 366.505 494.428C326.469 485.066 292.911 470.343 273.433 454.419C250.816 435.924 247.425 416.113 255.175 398.566C263.29 380.196 284.058 364.542 307.694 349.504C309.671 348.246 311.664 346.99 313.658 345.729C334.288 332.705 355.307 319.433 363.519 303.674C368.367 294.371 367.769 284.507 362.285 274.41C356.645 264.02 346.822 253.706 336.714 243.481L335.66 242.415L334.641 241.384C315.171 221.722 295.454 201.813 299.999 182.317C301.072 177.709 303.071 173.217 305.07 168.725L305.071 168.724C307.527 163.207 309.982 157.69 310.72 151.958C312.063 141.539 307.788 129.608 288.215 119.857C281.496 116.512 277.004 113.548 276.393 109.633C275.812 105.927 278.581 102.397 283.667 99.6923C296.544 92.8445 323.046 92.1103 345.635 91.859C385.962 91.4094 426.378 91.0928 466.791 90.776C486.724 90.6208 506.655 90.4645 526.571 90.2923C536.309 90.2087 546.041 90.1211 555.776 90.034L555.785 90.034L555.795 90.0338L555.804 90.0338L555.814 90.0336L555.823 90.0335L555.836 90.0337L555.846 90.0337L555.855 90.0335L555.865 90.0335L555.874 90.0333L555.884 90.0332L555.893 90.0332C575.875 89.8539 595.857 89.6746 615.859 89.5253C638.272 89.3583 660.855 89.3901 683.759 90.2446C727.517 91.8779 774.334 96.9476 810.558 110.224C850.05 124.695 868.904 144.771 886.054 163.028L886.07 163.046L886.094 163.071L886.148 163.13L886.156 163.137C886.906 163.936 887.654 164.732 888.399 165.523C910.376 188.844 928.955 212.368 944.032 235.933C958.658 258.796 970.821 281.879 977.785 304.652C983.767 324.207 983.223 344.276 958.76 359.657C948.266 366.259 933.661 371.803 915.104 375.155C893.171 379.119 866.988 379.285 840.801 378.516C834.025 378.316 827.207 378.061 820.383 377.805C799.059 377.004 777.67 376.202 757.283 377.124ZM686.256 388.346C686.242 388.351 686.229 388.354 686.216 388.357L686.192 388.365L686.169 388.372C650.35 400.365 630.678 417.404 613.577 434.701C611.893 436.406 610.219 438.119 608.546 439.834L608.542 439.837L608.538 439.84L608.535 439.843L608.531 439.846L608.531 439.849L608.527 439.853L608.527 439.854C593.116 455.637 577.514 471.616 549.219 484.044C520.897 496.484 479.134 505.53 428.862 502.615C384.406 500.037 341.416 488.759 310.345 474.722C235.144 440.747 245.352 398.116 284.136 367.744C293.339 360.536 304.1 353.737 314.862 346.937L314.863 346.936L314.866 346.935L314.869 346.934C326.349 339.683 337.825 332.43 347.412 324.684C356.248 317.544 363.494 309.974 367.012 301.817C370.661 293.36 369.879 284.472 365.22 275.407C359.03 263.356 347.222 251.511 335.412 239.663C327.323 231.552 319.238 223.441 312.95 215.259C305.027 204.952 300.393 194.612 302.053 184.627C302.946 179.255 305.251 174.062 307.556 168.869L307.556 168.866L307.557 168.864C309.603 164.254 311.65 159.641 312.709 154.905C314.783 145.658 312.97 135.473 300.738 126.001C298.06 123.929 294.889 121.907 291.245 119.999C290.492 119.606 289.735 119.222 288.987 118.844C285.561 117.109 282.334 115.475 280.6 113.391C277.009 109.079 278.988 104.665 284.062 101.367C296.289 93.4182 325.783 92.9919 349.866 92.766C369.535 92.5807 389.212 92.4162 408.89 92.2516C418.729 92.1694 428.571 92.0874 438.41 92.0017C458.044 91.8326 477.679 91.6589 497.311 91.4849L497.333 91.4849C536.549 91.1365 575.771 90.789 615.015 90.4798C659.019 90.1335 705.806 90.2024 751.111 96.8937C773.669 100.226 795.166 105.346 812.878 112.268C832.322 119.866 846.416 129.017 857.722 138.27C870.25 148.522 880.066 159.085 889.748 169.557C900.297 180.965 910.038 192.417 918.947 203.896C936.666 226.724 951.13 249.657 962.221 272.552L962.739 273.621C972.983 294.748 983.744 316.947 976.26 336.976C969.896 354.006 947.064 370.157 904.401 375.727C878.181 379.15 848.707 378.038 819.177 376.923C794.196 375.981 769.172 375.036 746.041 376.834C722.966 378.626 703.076 382.843 686.256 388.346ZM683.21 376.632C700.878 370.842 722.28 366.637 747.307 365.505C766.168 364.651 785.952 365.394 805.68 366.134C811.99 366.371 818.297 366.607 824.565 366.791C848.794 367.503 873.024 367.348 893.323 363.682C910.498 360.578 924.019 355.447 933.741 349.337C956.381 335.106 956.884 316.536 951.35 298.441C944.907 277.376 933.654 256.018 920.126 234.867C906.181 213.07 888.992 191.31 868.665 169.738C867.946 168.976 867.229 168.21 866.505 167.442C850.636 150.544 833.183 131.964 796.637 118.569C763.109 106.28 719.78 101.584 679.282 100.073C658.084 99.2812 637.186 99.2516 616.45 99.4073C598.094 99.5449 579.752 99.7098 561.414 99.8741L561.398 99.8736L561.328 99.8744L561.261 99.8755C552.127 99.9573 542.993 100.039 533.859 100.117C515.442 100.277 497.015 100.421 478.588 100.565C441.197 100.858 403.802 101.15 366.489 101.567C345.568 101.8 321.036 102.482 309.111 108.824C304.397 111.332 301.831 114.602 302.372 118.037C302.942 121.667 307.108 124.417 313.336 127.52C331.428 136.532 335.367 147.56 334.124 157.188C333.44 162.49 331.168 167.595 328.896 172.7C327.047 176.854 325.198 181.008 324.204 185.269C319.996 203.305 338.236 221.723 356.247 239.912C356.89 240.561 357.529 241.209 358.172 241.856C367.521 251.314 376.605 260.854 381.825 270.465C386.891 279.8 387.447 288.917 382.969 297.516C375.376 312.092 355.932 324.366 336.854 336.413C335.006 337.579 333.166 338.741 331.338 339.903C309.469 353.815 290.252 368.299 282.748 385.294C275.573 401.535 278.715 419.868 299.65 436.987C317.677 451.727 348.741 465.352 385.795 474.016C424.886 483.152 467.679 485.316 503.524 479.921C565.902 470.533 588.978 447.102 611.683 424.043C620.97 414.612 630.196 405.244 642.028 396.923C652.871 389.285 666.303 382.292 683.21 376.632ZM614.263 418.712C630.069 402.727 648.247 386.978 681.318 375.884C681.342 375.874 681.366 375.864 681.393 375.854L681.423 375.844C697.012 370.737 715.451 366.823 736.848 365.163C758.242 363.5 781.38 364.374 804.485 365.246C831.799 366.277 859.055 367.306 883.306 364.14C922.749 358.993 943.849 344.057 949.732 328.314C956.65 309.796 946.7 289.272 937.233 269.74L936.749 268.739C926.484 247.561 913.104 226.347 896.714 205.231C888.475 194.611 879.464 184.018 869.707 173.466C860.754 163.784 851.677 154.017 840.091 144.536C829.635 135.978 816.604 127.519 798.625 120.492C782.25 114.093 762.382 109.362 741.533 106.283C699.639 100.096 656.374 100.033 615.687 100.354C579.665 100.638 543.659 100.957 507.657 101.277L507.631 101.277C489.198 101.44 470.764 101.604 452.332 101.763C443.532 101.839 434.732 101.913 425.932 101.987C407.427 102.142 388.922 102.298 370.426 102.471C348.177 102.678 320.912 103.069 309.615 110.414C304.935 113.459 303.108 117.535 306.424 121.512C308.026 123.436 311.004 124.942 314.166 126.541L314.167 126.542C314.856 126.891 315.555 127.245 316.25 127.607C319.63 129.373 322.568 131.246 325.047 133.166C336.373 141.934 338.053 151.361 336.136 159.921C335.155 164.3 333.263 168.563 331.371 172.825C329.237 177.633 327.104 182.44 326.277 187.414C324.746 196.648 329.029 206.208 336.354 215.74C342.17 223.308 349.653 230.813 357.133 238.317C368.056 249.274 378.98 260.229 384.705 271.376C389.014 279.767 389.739 287.995 386.359 295.824C383.102 303.373 376.396 310.375 368.221 316.983C359.351 324.151 348.731 330.862 338.111 337.573C328.155 343.861 318.203 350.15 309.692 356.815C273.831 384.894 264.389 424.313 333.921 455.726C362.645 468.706 402.381 479.13 443.483 481.513C489.953 484.207 528.563 475.845 554.74 464.347C580.923 452.847 595.355 438.062 609.611 423.458C611.161 421.873 612.705 420.289 614.263 418.712ZM737.336 353.887C714.35 354.926 694.704 358.786 678.48 364.104C662.949 369.304 650.61 375.726 640.634 382.737C629.764 390.382 621.289 398.99 612.756 407.653L612.753 407.654L612.753 407.655L612.753 407.657L612.753 407.658C591.88 428.852 570.673 450.387 513.326 459.018C480.363 463.979 441.015 461.99 405.069 453.589C370.994 445.625 342.423 433.094 325.846 419.541C306.595 403.799 303.705 386.944 310.302 372.009C317.202 356.39 334.86 343.077 354.962 330.292C356.64 329.224 358.331 328.156 360.026 327.087C377.558 316.02 395.421 304.742 402.395 291.349C406.51 283.455 406.003 275.08 401.35 266.512C396.557 257.68 388.208 248.912 379.615 240.222L379.065 239.666L377.856 238.443C361.297 221.722 344.533 204.793 348.399 188.214C349.312 184.298 351.011 180.481 352.71 176.664C354.798 171.972 356.887 167.281 357.514 162.409C358.653 153.572 355.049 143.448 338.442 135.176C332.701 132.316 328.861 129.778 328.337 126.432C327.844 123.271 330.206 120.256 334.544 117.949C345.519 112.113 368.081 111.482 387.332 111.268C421.539 110.886 455.826 110.618 490.109 110.35L490.112 110.35L490.116 110.349L490.119 110.35C507.126 110.216 524.139 110.083 541.135 109.937C549.112 109.867 557.086 109.796 565.063 109.725L565.089 109.724L565.117 109.725L565.146 109.724L565.175 109.724L565.203 109.723L565.213 109.723L565.226 109.723C582.487 109.569 599.751 109.414 617.03 109.284C636.097 109.143 655.311 109.17 674.797 109.897C712.043 111.287 751.878 115.61 782.707 126.91C816.303 139.226 832.347 156.307 846.936 171.842L846.947 171.851L847.528 172.469L847.897 172.862C848.238 173.225 848.58 173.588 848.919 173.949C867.599 193.772 883.395 213.769 896.208 233.798C908.642 253.238 918.984 272.867 924.903 292.229C929.989 308.865 929.517 325.936 908.708 339.018C899.77 344.638 887.332 349.356 871.532 352.211C852.873 355.582 830.6 355.724 808.325 355.07C802.562 354.901 796.766 354.683 790.964 354.466L790.961 354.466C772.838 353.786 754.662 353.103 737.336 353.887ZM676.773 363.297L676.746 363.305C676.733 363.309 676.716 363.313 676.703 363.317C646.236 373.519 629.495 388.011 614.954 402.725C613.519 404.175 612.096 405.632 610.671 407.091C597.575 420.507 584.314 434.089 560.266 444.652C536.232 455.208 500.781 462.887 458.117 460.414C420.371 458.226 383.883 448.653 357.503 436.736C293.644 407.885 302.323 371.678 335.257 345.889C343.078 339.764 352.227 333.985 361.376 328.206C371.136 322.04 380.893 315.874 389.045 309.289C396.562 303.212 402.725 296.776 405.72 289.836C408.826 282.636 408.166 275.07 404.201 267.351C398.939 257.105 388.9 247.037 378.861 236.966C371.989 230.072 365.113 223.178 359.771 216.225C353.039 207.467 349.107 198.688 350.515 190.207C351.272 185.638 353.234 181.222 355.193 176.806C356.932 172.887 358.673 168.969 359.573 164.943C361.336 157.07 359.784 148.399 349.368 140.336C347.087 138.568 344.38 136.846 341.269 135.219C340.63 134.886 339.991 134.563 339.359 134.243L339.356 134.241C336.463 132.777 333.732 131.396 332.269 129.636C329.233 125.991 330.905 122.256 335.195 119.466C345.564 112.727 370.596 112.37 391.014 112.179C408.054 112.02 425.104 111.877 442.153 111.734L442.211 111.734C450.235 111.666 458.256 111.599 466.281 111.53C482.39 111.39 498.501 111.247 514.611 111.105L514.614 111.104L514.62 111.104L514.624 111.104L514.627 111.104L514.633 111.103L514.639 111.104C548.551 110.803 582.462 110.502 616.396 110.236C653.765 109.942 693.506 109.997 731.988 115.68C751.128 118.507 769.374 122.85 784.406 128.725C800.92 135.18 812.887 142.95 822.493 150.811C833.137 159.519 841.476 168.493 849.699 177.385C858.665 187.08 866.948 196.817 874.52 206.575C889.581 225.979 901.872 245.474 911.307 264.934L911.755 265.865C920.451 283.804 929.589 302.654 923.238 319.661C917.835 334.119 898.468 347.837 862.24 352.565C839.959 355.474 814.91 354.528 789.81 353.581C768.588 352.779 747.328 351.977 727.678 353.502C708.065 355.025 691.149 358.602 676.849 363.277L676.826 363.283C676.81 363.287 676.79 363.292 676.773 363.297ZM673.747 351.577C688.529 346.734 706.429 343.215 727.366 342.268C743.166 341.554 759.744 342.176 776.274 342.795C781.559 342.993 786.844 343.192 792.093 343.345C812.413 343.941 832.729 343.81 849.747 340.737C864.173 338.132 875.529 333.827 883.689 328.697C902.672 316.763 903.109 301.192 898.468 286.018C893.068 268.358 883.642 250.459 872.302 232.732C860.618 214.468 846.213 196.235 829.185 178.163C828.584 177.527 827.985 176.888 827.382 176.246C814.071 162.073 799.433 146.489 768.781 135.251C740.65 124.939 704.303 120.99 670.314 119.722C652.538 119.057 635.012 119.032 617.619 119.163C602.078 119.28 586.546 119.418 571.017 119.558L570.995 119.558L570.972 119.559L570.95 119.559C563.44 119.626 555.933 119.693 548.423 119.758C532.968 119.891 517.503 120.012 502.037 120.134L502.031 120.133L502.028 120.134L502.024 120.134L502.018 120.134L502.012 120.133L501.948 120.135L501.939 120.135C470.668 120.379 439.393 120.624 408.194 120.973C390.605 121.168 370.019 121.749 359.998 127.078C356.039 129.187 353.876 131.942 354.33 134.831C354.811 137.894 358.319 140.216 363.575 142.835C378.692 150.366 381.969 159.587 380.932 167.633C380.362 172.076 378.458 176.354 376.554 180.632C375.004 184.112 373.454 187.592 372.622 191.162C369.097 206.284 384.386 221.727 399.49 236.978C400.024 237.517 400.558 238.056 401.089 238.595C408.926 246.518 416.536 254.513 420.906 262.565C425.142 270.371 425.604 277.999 421.862 285.19C415.504 297.396 399.226 307.673 383.249 317.76L383.231 317.773C381.689 318.745 380.151 319.717 378.622 320.689C360.297 332.351 344.183 344.491 337.893 358.735C331.872 372.364 334.508 387.741 352.077 402.106C367.202 414.474 393.28 425.908 424.373 433.174C457.172 440.838 493.086 442.654 523.165 438.126C575.468 430.253 594.811 410.618 613.848 391.291C621.633 383.389 629.367 375.538 639.283 368.563C648.349 362.169 659.592 356.316 673.747 351.577ZM615.64 386.735C628.889 373.336 644.126 360.14 671.838 350.836C671.852 350.828 671.869 350.821 671.89 350.814C671.9 350.808 671.914 350.803 671.927 350.799L671.937 350.795L671.961 350.787C685.04 346.501 700.526 343.22 718.485 341.825C736.396 340.435 755.776 341.167 775.122 341.898C798.002 342.761 820.838 343.624 841.149 340.973C874.154 336.666 891.795 324.167 896.714 310.994C902.5 295.488 894.166 278.3 886.234 261.946L885.832 261.116C877.237 243.373 866.026 225.598 852.293 207.907C845.392 199.01 837.842 190.134 829.664 181.293C822.168 173.189 814.57 165.013 804.872 157.075C796.122 149.912 785.213 142.831 770.166 136.949C756.473 131.598 739.853 127.646 722.415 125.071C687.355 119.892 651.139 119.843 617.084 120.112C586.353 120.354 555.639 120.627 524.925 120.899C510.022 121.032 495.119 121.164 480.214 121.292C472.895 121.355 465.573 121.417 458.251 121.478L458.229 121.479C442.679 121.609 427.13 121.739 411.591 121.884C393.003 122.059 370.195 122.379 360.758 128.514C356.857 131.049 355.341 134.443 358.1 137.756C359.432 139.354 361.911 140.607 364.54 141.936C365.116 142.227 365.7 142.522 366.281 142.826C369.123 144.311 371.599 145.887 373.684 147.501C383.188 154.86 384.61 162.773 382.998 169.959C382.178 173.628 380.59 177.199 379.006 180.771L379.006 180.772C377.217 184.8 375.432 188.828 374.74 192.994C373.451 200.725 377.039 208.727 383.17 216.706C388.045 223.046 394.309 229.331 400.577 235.616L400.577 235.617C409.731 244.799 418.886 253.98 423.685 263.322C427.304 270.365 427.907 277.271 425.073 283.844C422.342 290.175 416.716 296.048 409.86 301.59C402.428 307.595 393.528 313.218 384.627 318.841C376.289 324.109 367.95 329.378 360.82 334.962C330.815 358.462 322.903 391.455 381.085 417.743C405.119 428.6 438.358 437.32 472.745 439.314C511.6 441.568 543.899 434.569 565.787 424.956C587.705 415.329 599.788 402.954 611.725 390.728C613.029 389.395 614.33 388.062 615.64 386.735ZM717.386 330.648C698.496 331.503 682.346 334.678 669.011 339.05C656.235 343.327 646.088 348.612 637.886 354.385C628.928 360.685 621.94 367.775 614.907 374.914C597.705 392.376 580.229 410.113 532.963 417.228C505.77 421.322 473.297 419.681 443.639 412.753C415.519 406.185 391.94 395.848 378.263 384.666C362.376 371.68 359.996 357.779 365.437 345.457C371.123 332.588 385.678 321.618 402.238 311.084C403.618 310.206 405.007 309.329 406.396 308.45L406.407 308.444L406.414 308.439C420.842 299.331 435.539 290.052 441.278 279.03C444.663 272.542 444.24 265.659 440.417 258.617C436.471 251.343 429.591 244.122 422.518 236.966L421.588 236.028L421.071 235.504C407.426 221.725 393.61 207.772 396.8 194.11C397.551 190.886 398.949 187.743 400.35 184.601C402.07 180.737 403.79 176.872 404.306 172.859C405.241 165.604 402.297 157.287 388.664 150.495C383.893 148.118 380.711 146.009 380.277 143.229C379.866 140.612 381.824 138.114 385.416 136.205C394.482 131.382 413.101 130.853 429.017 130.675C457.127 130.362 485.296 130.141 513.466 129.922C527.54 129.811 541.614 129.7 555.68 129.579C562.531 129.521 569.384 129.459 576.236 129.397L576.258 129.397L576.284 129.398L576.306 129.396L576.331 129.397L576.354 129.397L576.44 129.395L576.525 129.395L576.557 129.395C590.43 129.27 604.3 129.146 618.185 129.041C633.901 128.922 649.745 128.948 665.816 129.547C696.556 130.693 729.393 134.27 754.835 143.593C782.536 153.745 795.764 167.829 807.793 180.635L807.796 180.638L807.871 180.719C808.39 181.272 808.909 181.824 809.426 182.373C824.81 198.7 837.82 215.166 848.371 231.663C858.62 247.68 867.138 263.852 872.018 279.806C876.214 293.519 875.809 307.59 858.651 318.375C851.272 323.015 840.998 326.907 827.957 329.264C812.572 332.041 794.216 332.161 775.853 331.623C771.116 331.484 766.349 331.304 761.581 331.126L761.574 331.125L761.571 331.126L761.565 331.125L761.562 331.125L761.555 331.126L761.549 331.125L761.546 331.125C746.621 330.564 731.651 330.003 717.386 330.648ZM667.234 338.263C642.116 346.673 628.319 358.618 616.329 370.748C615.153 371.936 613.99 373.131 612.823 374.326L612.82 374.328L612.819 374.33L612.816 374.331L612.815 374.333L612.812 374.335L612.812 374.338C602.03 385.383 591.114 396.563 571.313 405.26C551.568 413.931 522.424 420.248 487.378 418.216C456.348 416.416 426.36 408.549 404.673 398.751C352.157 375.024 359.307 345.243 386.393 324.035C392.834 318.988 400.37 314.227 407.906 309.467L407.906 309.466L407.91 309.465L407.91 309.464C415.943 304.388 423.977 299.313 430.685 293.893C436.879 288.883 441.972 283.578 444.437 277.854C447.001 271.91 446.457 265.667 443.184 259.295C438.854 250.859 430.586 242.568 422.316 234.276L422.316 234.274L422.314 234.272C416.654 228.596 410.991 222.917 406.59 217.19C401.055 209.986 397.818 202.763 398.979 195.784C399.603 192.021 401.218 188.384 402.832 184.746L402.833 184.744C404.264 181.518 405.695 178.292 406.436 174.978C407.893 168.481 406.603 161.324 398.002 154.669C396.113 153.207 393.87 151.781 391.295 150.436C390.776 150.164 390.256 149.901 389.741 149.64C387.373 148.445 385.142 147.317 383.938 145.879C381.453 142.899 382.82 139.846 386.328 137.563C394.842 132.031 415.413 131.747 432.17 131.589C445.669 131.462 459.175 131.348 472.681 131.236L472.687 131.235L472.694 131.236L472.722 131.235C479.866 131.175 487.01 131.115 494.155 131.054C507.614 130.937 521.07 130.818 534.527 130.698C562.272 130.452 590.018 130.206 617.781 129.988C648.519 129.746 681.213 129.789 712.862 134.462C728.587 136.786 743.581 140.35 755.935 145.177C769.52 150.487 779.362 156.878 787.268 163.347C796.025 170.51 802.884 177.893 809.651 185.208C817.037 193.193 823.852 201.212 830.091 209.247C842.491 225.228 852.616 241.281 860.387 257.309L860.754 258.066C867.911 272.827 875.437 288.341 870.214 302.336C865.776 314.224 849.861 325.504 820.077 329.393C801.739 331.788 781.117 331.008 760.454 330.228C742.985 329.567 725.487 328.907 709.316 330.161C693.071 331.42 679.069 334.387 667.234 338.263ZM664.281 326.522C676.171 322.625 690.566 319.789 707.409 319.029C720.137 318.454 733.485 318.954 746.796 319.453C751.078 319.613 755.357 319.774 759.611 319.899C776.016 320.379 792.421 320.271 806.17 317.788C817.833 315.681 827.021 312.202 833.619 308.052C848.952 298.415 849.319 285.845 845.571 273.592C841.212 259.342 833.608 244.898 824.453 230.592C815.034 215.863 803.415 201.16 789.68 186.583C789.195 186.069 788.711 185.553 788.222 185.032C777.476 173.591 765.651 161.002 740.906 151.932C718.159 143.596 688.81 140.394 661.327 139.369C646.966 138.833 632.813 138.812 618.765 138.917C605.986 139.011 593.216 139.127 580.445 139.241C574.616 139.294 568.788 139.346 562.959 139.396C550.654 139.502 538.343 139.599 526.03 139.696C500.625 139.893 475.217 140.093 449.867 140.376C435.617 140.534 418.977 141.013 410.853 145.331C407.64 147.044 405.885 149.282 406.244 151.625C406.64 154.122 409.49 156.016 413.775 158.15C425.921 164.203 428.533 171.617 427.7 178.081C427.237 181.663 425.701 185.113 424.166 188.564C422.917 191.37 421.668 194.177 420.994 197.055C418.149 209.261 430.49 221.724 442.677 234.033L442.682 234.039C443.11 234.471 443.536 234.901 443.964 235.332C450.281 241.723 456.42 248.17 459.945 254.664C463.355 260.942 463.726 267.079 460.717 272.863C455.588 282.704 442.467 290.988 429.585 299.12C428.342 299.905 427.101 300.689 425.868 301.473C411.075 310.882 398.073 320.68 393 332.177C388.135 343.191 390.265 355.615 404.461 367.223C416.689 377.22 437.775 386.459 462.916 392.33C489.43 398.522 518.463 399.988 542.774 396.33C585.002 389.973 600.613 374.132 615.985 358.535C622.264 352.163 628.504 345.831 636.504 340.203C643.826 335.056 652.878 330.339 664.281 326.522ZM617.017 354.76C627.714 343.936 640.023 333.281 662.406 325.768C662.42 325.762 662.437 325.755 662.454 325.749L662.464 325.745L662.498 325.734C673.074 322.266 685.6 319.617 700.125 318.491C714.556 317.372 730.175 317.963 745.768 318.552C764.211 319.249 782.62 319.944 798.991 317.809C825.555 314.343 839.735 304.278 843.695 293.675C848.354 281.193 841.644 267.354 835.258 254.187L834.924 253.498C827.992 239.187 818.95 224.852 807.873 210.584C802.305 203.407 796.22 196.25 789.625 189.121C783.585 182.593 777.467 176.006 769.653 169.613C762.606 163.844 753.828 158.141 741.701 153.401C730.69 149.099 717.318 145.923 703.302 143.852C675.069 139.681 645.896 139.646 618.475 139.862C593.941 140.056 569.418 140.274 544.895 140.491C532.627 140.6 520.362 140.708 508.095 140.815C501.669 140.87 495.24 140.924 488.814 140.978L488.767 140.979C476.76 141.079 464.751 141.179 452.749 141.291C437.826 141.431 419.483 141.679 411.9 146.609C408.783 148.636 407.573 151.348 409.781 153.997C410.845 155.269 412.821 156.267 414.914 157.326C415.379 157.56 415.847 157.796 416.314 158.04C418.623 159.246 420.632 160.522 422.324 161.833C430.006 167.783 431.174 174.181 429.871 179.991C429.209 182.953 427.931 185.834 426.65 188.716C425.21 191.962 423.769 195.209 423.21 198.569C422.176 204.797 425.06 211.238 430.002 217.668C433.933 222.78 438.988 227.85 444.039 232.918C451.425 240.324 458.805 247.728 462.675 255.263C465.608 260.962 466.092 266.543 463.8 271.86C461.593 276.974 457.043 281.715 451.504 286.191C445.512 291.035 438.335 295.567 431.161 300.101C424.432 304.351 417.706 308.601 411.953 313.105C387.796 332.022 381.409 358.592 428.252 379.756C447.589 388.494 474.332 395.51 502.003 397.114C533.247 398.926 559.234 393.292 576.831 385.562C594.502 377.804 604.243 367.83 613.862 357.976L613.865 357.975C614.913 356.901 615.961 355.828 617.017 354.76ZM697.439 307.409C682.639 308.078 669.997 310.57 659.548 313.994C649.521 317.351 641.565 321.499 635.134 326.03C628.089 330.984 622.596 336.558 617.068 342.167L617.065 342.168C603.531 355.897 589.787 369.841 552.597 375.437C531.171 378.662 505.58 377.369 482.21 371.915C460.055 366.742 441.458 358.6 430.68 349.788C418.165 339.555 416.287 328.611 420.575 318.901C425.044 308.783 436.496 300.155 449.518 291.87C450.543 291.219 451.576 290.567 452.61 289.915L452.667 289.877L452.728 289.839L452.77 289.813L452.774 289.81C464.113 282.656 475.663 275.366 480.173 266.707C482.822 261.626 482.491 256.232 479.497 250.719C476.396 245.004 470.992 239.33 465.431 233.707C465.057 233.328 464.683 232.95 464.309 232.572C453.576 221.731 442.71 210.755 445.213 200.007C445.804 197.47 446.904 194.998 448.004 192.526C449.355 189.492 450.703 186.458 451.112 183.307C451.843 177.634 449.557 171.125 438.902 165.811C435.1 163.917 432.575 162.238 432.229 160.025C431.906 157.956 433.457 155.973 436.299 154.461C443.465 150.649 458.135 150.222 470.719 150.083C493.064 149.832 515.463 149.657 537.859 149.482L537.894 149.481L537.932 149.48L537.97 149.481C548.733 149.397 559.492 149.312 570.244 149.22C575.497 149.174 580.751 149.127 586.001 149.08L586.011 149.08L586.023 149.08L586.033 149.08L586.042 149.08L586.055 149.079L586.065 149.079C597.16 148.979 608.252 148.88 619.357 148.796C631.734 148.702 644.205 148.723 656.854 149.196C681.082 150.099 706.934 152.926 726.985 160.275C748.79 168.268 759.202 179.357 768.671 189.438L769.373 190.184L769.949 190.797C782.041 203.626 792.26 216.565 800.55 229.527C808.607 242.12 815.304 254.837 819.14 267.381C822.439 278.176 822.103 289.245 808.603 297.733C802.783 301.392 794.676 304.459 784.388 306.316C772.283 308.502 757.828 308.599 743.378 308.175C739.645 308.066 735.887 307.924 732.128 307.783L732.125 307.783C720.403 307.344 708.65 306.903 697.439 307.409ZM657.717 313.226C637.983 319.843 627.135 329.233 617.703 338.77C616.784 339.702 615.87 340.638 614.953 341.574C606.485 350.251 597.911 359.035 582.357 365.867C566.904 372.655 544.072 377.605 516.636 376.016C492.322 374.606 468.831 368.442 451.838 360.763C410.666 342.163 416.285 318.804 437.522 302.18C442.58 298.218 448.496 294.481 454.412 290.744L454.412 290.743C460.73 286.75 467.05 282.758 472.325 278.494C477.203 274.551 481.216 270.376 483.158 265.872C485.182 261.183 484.757 256.263 482.171 251.236C478.766 244.608 472.271 238.094 465.775 231.579C461.329 227.116 456.879 222.654 453.42 218.152C449.073 212.499 446.536 206.836 447.447 201.36C447.937 198.403 449.204 195.545 450.474 192.688C451.598 190.152 452.722 187.616 453.305 185.012C454.454 179.887 453.418 174.247 446.642 169.001C445.146 167.843 443.366 166.715 441.331 165.651C440.922 165.439 440.513 165.232 440.107 165.028L440.107 165.027C438.276 164.104 436.551 163.232 435.619 162.121C433.688 159.807 434.749 157.433 437.476 155.661C444.126 151.336 460.242 151.123 473.334 151C484.764 150.893 496.204 150.797 507.642 150.701L507.692 150.702C512.475 150.662 517.258 150.621 522.038 150.581C532.83 150.488 543.624 150.392 554.417 150.296L554.452 150.296C576.022 150.104 597.592 149.914 619.178 149.743C643.281 149.553 668.933 149.583 693.748 153.248C706.061 155.066 717.808 157.854 727.476 161.633C738.135 165.799 745.849 170.812 752.049 175.885C758.921 181.507 764.298 187.296 769.605 193.037C775.405 199.311 780.766 205.611 785.667 211.926C795.412 224.482 803.367 237.098 809.469 249.69L809.77 250.312C815.379 261.882 821.278 274.048 817.185 285.019C813.706 294.334 801.258 303.182 777.91 306.229C763.515 308.109 747.317 307.496 731.09 306.883C717.373 306.364 703.638 305.844 690.946 306.827C678.139 307.818 667.091 310.154 657.764 313.21C657.747 313.216 657.734 313.221 657.717 313.226ZM654.812 301.467C663.816 298.517 674.706 296.367 687.462 295.791C697.139 295.353 707.29 295.734 717.412 296.114L717.415 296.113L717.422 296.114C720.67 296.235 723.914 296.357 727.139 296.452C739.634 296.817 752.129 296.734 762.597 294.844C771.504 293.235 778.525 290.581 783.568 287.412C795.246 280.073 795.541 270.503 792.689 261.169C789.372 250.329 783.595 239.342 776.629 228.458C769.468 217.263 760.642 206.087 750.199 195.009L749.645 194.42L749.099 193.839C740.913 185.121 731.904 175.531 713.046 168.616C695.7 162.257 673.333 159.802 652.358 159.021C641.419 158.612 630.632 158.594 619.928 158.673C609.826 158.75 599.735 158.841 589.641 158.931C585.598 158.968 581.556 159.004 577.513 159.039C568.173 159.119 558.827 159.193 549.482 159.266L549.469 159.266L549.393 159.266L549.384 159.267C530.095 159.418 510.804 159.569 491.553 159.783C480.638 159.905 467.941 160.281 461.723 163.586C459.258 164.899 457.903 166.622 458.183 168.421C458.485 170.35 460.687 171.817 463.997 173.467C473.169 178.042 475.122 183.647 474.49 188.527C474.141 191.251 472.973 193.873 471.803 196.497C470.855 198.629 469.905 200.761 469.395 202.949C467.226 212.245 476.626 221.738 485.91 231.111L485.91 231.112L486.862 232.072C491.661 236.928 496.328 241.829 499.01 246.766C501.586 251.515 501.873 256.164 499.594 260.54C495.703 268.008 485.745 274.296 475.968 280.468C475.019 281.067 474.074 281.664 473.135 282.26C461.881 289.419 451.988 296.875 448.123 305.621C444.414 314.024 446.04 323.49 456.872 332.346C466.197 339.97 482.3 347.021 501.476 351.492C521.709 356.21 543.851 357.329 562.399 354.537C594.551 349.7 606.429 337.654 618.13 325.789C622.91 320.944 627.656 316.129 633.743 311.847C639.301 307.941 646.164 304.363 654.812 301.467ZM618.391 322.783C626.538 314.539 635.92 306.425 652.971 300.703C652.991 300.696 653.011 300.688 653.032 300.681C661.114 298.035 670.678 296.015 681.768 295.158C692.726 294.31 704.583 294.759 716.42 295.206C730.43 295.737 744.414 296.265 756.837 294.644C776.965 292.018 787.687 284.389 790.679 276.358C794.208 266.898 789.122 256.407 784.284 246.43L784.016 245.879C778.746 235.003 771.875 224.107 763.455 213.263C759.224 207.81 754.594 202.369 749.585 196.95C745.009 191.999 740.367 187.003 734.443 182.154C729.093 177.776 722.44 173.454 713.242 169.859C704.913 166.602 694.79 164.204 684.185 162.638C662.785 159.477 640.658 159.454 619.873 159.618C601.515 159.763 583.171 159.926 564.826 160.089C555.209 160.173 545.595 160.258 535.978 160.342C531.37 160.382 526.762 160.421 522.151 160.459L522.071 160.46L521.989 160.461L521.957 160.461C512.607 160.539 503.261 160.618 493.913 160.705C482.649 160.81 468.767 160.987 463.044 164.709C460.709 166.224 459.801 168.258 461.458 170.241C462.25 171.187 463.724 171.929 465.28 172.715C465.633 172.893 465.99 173.073 466.343 173.258C468.116 174.182 469.661 175.161 470.96 176.166C476.828 180.709 477.735 185.591 476.74 190.028C476.236 192.278 475.262 194.469 474.289 196.659C473.196 199.127 472.099 201.594 471.674 204.147C470.894 208.872 473.08 213.757 476.828 218.633C479.817 222.518 483.656 226.371 487.498 230.224C493.109 235.854 498.72 241.481 501.661 247.207C503.892 251.559 504.263 255.819 502.514 259.879C500.833 263.775 497.357 267.385 493.14 270.795C488.586 274.476 483.132 277.921 477.675 281.367C472.565 284.598 467.453 287.827 463.078 291.251C444.774 305.587 439.915 325.73 475.417 341.769C490.066 348.388 510.303 353.699 531.267 354.915C554.893 356.284 574.567 352.018 587.881 346.171C601.302 340.276 608.701 332.699 616.01 325.213C616.804 324.401 617.595 323.591 618.391 322.783ZM678.15 284.144C667.161 284.589 657.809 286.411 650.083 288.939C642.803 291.379 637.035 294.389 632.363 297.679C627.234 301.289 623.232 305.343 619.204 309.422C609.343 319.412 599.34 329.547 572.252 333.637C556.77 335.975 538.216 335.084 521.257 331.184C504.963 327.438 491.268 321.503 483.273 315.054C474.125 307.671 472.609 299.764 475.539 292.725C478.615 285.323 486.845 278.991 496.321 272.948C497.246 272.357 498.181 271.766 499.118 271.174C507.236 266.051 515.485 260.845 518.883 254.675C520.897 251.024 520.805 247.14 518.739 243.16C516.595 239.023 512.734 234.911 508.722 230.84C508.476 230.591 508.229 230.342 507.983 230.092L507.329 229.432C499.706 221.724 491.957 213.895 493.538 206.238C493.943 204.272 494.793 202.363 495.642 200.453L495.643 200.452C496.615 198.266 497.588 196.08 497.892 193.811C498.45 189.708 496.848 184.974 489.124 181.124C486.417 179.776 484.552 178.569 484.201 176.985C483.863 175.474 484.901 174.029 486.847 172.895C491.72 170.053 502.189 169.622 511.254 169.5C527.52 169.279 543.861 169.163 560.201 169.048L560.211 169.048C568.239 168.991 576.268 168.934 584.29 168.864C588.208 168.83 592.127 168.796 596.046 168.761L596.227 168.759L596.271 168.759C604.211 168.688 612.15 168.618 620.094 168.556C629.058 168.486 638.091 168.496 647.255 168.822C664.967 169.454 683.939 171.47 698.698 176.804C714.76 182.611 722.389 190.684 729.342 198.04L729.366 198.066L729.67 198.388L730.069 198.808C738.876 208.107 746.328 217.488 752.393 226.886C758.336 236.102 763.232 245.399 766.131 254.582C768.637 262.505 768.563 270.639 758.822 276.914C754.691 279.579 748.92 281.819 741.596 283.226C732.97 284.88 722.594 285.044 712.15 284.763C709.051 284.68 705.932 284.564 702.81 284.447L702.807 284.446C694.482 284.134 686.138 283.821 678.15 284.144ZM648.224 288.18C634.014 292.961 626.105 299.704 619.291 306.581C618.989 306.884 618.69 307.187 618.394 307.492C617.946 307.945 617.504 308.401 617.059 308.857C611.032 315.033 604.936 321.279 594.033 326.192C582.889 331.214 566.276 334.952 546.184 333.829C528.536 332.843 511.467 328.389 499.105 322.822C469.154 309.333 473.246 292.357 488.681 280.296C492.352 277.425 496.638 274.717 500.926 272.008L500.926 272.007L500.929 272.006C505.45 269.147 509.972 266.29 513.775 263.244C521.125 257.354 524.899 250.892 521.355 243.589C518.947 238.63 514.085 233.754 509.222 228.879C506.137 225.785 503.052 222.691 500.593 219.575C497.379 215.501 495.343 211.397 495.831 207.427C496.121 205.093 497.116 202.847 498.112 200.6L498.112 200.599C498.868 198.89 499.626 197.181 500.074 195.432C501.017 191.735 500.44 187.698 495.93 183.869C494.848 182.951 493.535 182.063 491.996 181.217C491.535 180.961 491.034 180.715 490.533 180.47L490.53 180.47C489.486 179.959 488.449 179.451 487.78 178.863C485.815 177.142 486.447 175.279 488.372 173.918C492.968 170.666 504.826 170.503 514.381 170.412C521.952 170.34 529.532 170.277 537.111 170.213L537.225 170.212C541.347 170.178 545.472 170.143 549.597 170.107C557.431 170.039 565.265 169.971 573.096 169.902C588.745 169.765 604.395 169.627 620.052 169.5C637.571 169.357 656.21 169.349 674.269 171.978C683.273 173.289 691.887 175.307 698.964 178.066C706.662 181.068 712.24 184.677 716.725 188.335C721.698 192.385 725.575 196.557 729.41 200.696C733.613 205.227 737.489 209.777 741.043 214.339C748.151 223.462 753.958 232.627 758.42 241.78L758.694 242.337C762.811 250.775 767.145 259.657 764.19 267.656C761.7 274.387 752.8 280.778 736.013 283.027C725.489 284.437 713.595 283.988 701.672 283.539C691.582 283.158 681.472 282.777 672.159 283.522C662.959 284.257 655.03 285.953 648.302 288.151C648.275 288.161 648.248 288.17 648.224 288.18ZM645.35 276.411C651.607 274.372 659.149 272.893 668.033 272.53C674.523 272.265 681.302 272.52 688.07 272.775C690.715 272.874 693.358 272.973 695.977 273.041C704.483 273.263 712.916 273.103 719.904 271.731C725.944 270.545 730.659 268.672 734.019 266.444C741.697 261.349 741.725 254.8 739.707 248.418C737.342 240.936 733.355 233.363 728.506 225.854C723.512 218.121 717.36 210.401 710.081 202.754L709.675 202.326C703.979 196.336 697.736 189.773 684.538 185.061C672.439 180.74 656.91 179.132 642.482 178.634C629.344 178.183 616.38 178.36 603.494 178.537L603.488 178.536C599.346 178.593 595.211 178.65 591.083 178.684C584.654 178.74 578.217 178.785 571.777 178.83C558.534 178.922 545.289 179.014 532.11 179.2C524.774 179.305 516.426 179.677 512.418 181.946C509.15 183.799 509.285 186.377 513.795 188.568C524.217 193.635 521.715 199.309 519.423 204.513C518.811 205.897 518.215 207.248 517.881 208.546C516.192 215.099 522.798 221.765 529.361 228.388L529.491 228.521C536.07 235.162 541.819 241.869 538.469 248.244C535.788 253.344 528.989 257.633 522.303 261.851C521.55 262.326 520.8 262.8 520.057 263.274C512.309 268.215 505.582 273.395 503.097 279.454C500.752 285.179 502.01 291.608 509.469 297.605C515.989 302.848 527.115 307.67 540.359 310.722C554.205 313.911 569.341 314.646 581.998 312.748C604.096 309.433 612.256 301.17 620.296 293.032C623.528 289.759 626.741 286.506 630.831 283.603C634.652 280.894 639.374 278.421 645.35 276.411ZM620.17 290.4C625.656 284.888 632.077 279.518 643.434 275.673C643.451 275.664 643.469 275.656 643.489 275.647C643.513 275.638 643.54 275.629 643.567 275.621C649.082 273.821 655.564 272.44 663.107 271.84C670.653 271.24 678.842 271.55 687.019 271.859C696.712 272.225 706.38 272.591 714.927 271.439C728.858 269.563 736.033 264.176 737.821 258.561C739.886 252.073 736.383 244.939 733.043 238.133L732.874 237.786C729.23 230.361 724.499 222.925 718.712 215.524C715.815 211.823 712.66 208.132 709.245 204.455C706.138 201.113 702.996 197.74 698.95 194.471C695.293 191.515 690.745 188.61 684.485 186.197C678.664 183.956 671.581 182.339 664.214 181.296C649.388 179.196 634.154 179.257 619.793 179.38C601.154 179.54 582.521 179.701 563.884 179.863L562.744 179.872C559.74 179.898 556.737 179.923 553.734 179.947C547.293 180 540.851 180.052 534.417 180.118C526.578 180.199 516.87 180.407 513.609 183.233C512.315 184.357 512.023 185.858 513.922 187.184C514.472 187.569 515.199 187.924 515.923 188.279C516.424 188.524 516.922 188.767 517.365 189.021C518.548 189.701 519.548 190.415 520.373 191.147C523.821 194.21 524.278 197.401 523.538 200.35C523.176 201.782 522.555 203.182 521.934 204.581C521.164 206.324 520.389 208.068 520.119 209.874C519.633 213.087 521.178 216.407 523.744 219.717C525.774 222.337 528.365 224.936 530.956 227.534C534.792 231.382 538.626 235.229 540.639 239.144C543.687 245.065 540.945 250.323 535.104 255.133C531.915 257.759 528.042 260.208 524.169 262.657L524.166 262.657C520.826 264.77 517.482 266.883 514.576 269.11C501.813 278.906 498.181 292.78 522.634 303.806C532.656 308.326 546.509 311.942 560.834 312.732C577.28 313.641 590.816 310.517 599.828 306.374C608.437 302.416 613.298 297.431 618.112 292.495C618.795 291.795 619.478 291.095 620.17 290.4ZM659.144 260.874C651.843 261.078 645.714 262.229 640.614 263.884C635.945 265.461 632.272 267.401 629.317 269.526C626.257 271.726 623.834 274.179 621.392 276.646C615.176 282.929 608.864 289.31 591.759 291.861C582.041 293.31 570.415 292.757 559.77 290.33C549.451 287.977 540.754 284.235 535.674 280.161C523.49 270.39 532.234 260.999 543.549 253.763C544.193 253.351 544.847 252.939 545.5 252.526C550.545 249.345 555.664 246.116 557.802 242.292C560.584 237.304 556.075 232.07 550.911 226.856C545.86 221.762 540.789 216.639 542.057 211.6C542.334 210.508 542.809 209.441 543.285 208.374C543.934 206.92 544.58 205.464 544.722 203.95C544.851 202.546 544.572 201.097 543.485 199.649C542.416 198.235 540.548 197.143 538.244 195.904C535.212 194.276 535.64 192.275 537.982 190.998C541.107 189.296 547.369 188.991 552.965 188.903C563.348 188.74 573.806 188.673 584.258 188.605C589.335 188.572 594.408 188.54 599.471 188.496C602.56 188.47 605.655 188.428 608.753 188.385L608.756 188.385C618.715 188.249 628.741 188.112 638.908 188.492C649.954 188.907 661.715 190.2 670.907 193.511C680.985 197.141 685.768 202.167 690.141 206.762L690.432 207.067C696.151 213.07 700.969 219.127 704.855 225.196C708.543 230.952 711.597 236.764 713.357 242.498C714.861 247.414 714.702 252.444 708.666 256.334C706.119 257.975 702.591 259.356 698.134 260.251C692.887 261.305 686.566 261.474 680.146 261.327C677.889 261.275 675.612 261.19 673.338 261.104C668.554 260.925 663.774 260.745 659.144 260.874ZM638.752 263.127C628.958 266.454 624.319 271.141 619.676 275.836C615.912 279.643 612.142 283.454 605.611 286.551C598.735 289.812 588.285 292.328 575.477 291.634C564.351 291.031 553.618 288.202 545.903 284.674C527.099 276.07 530.496 265.329 540.623 257.82C542.72 256.265 545.073 254.774 547.425 253.285C550.51 251.333 553.595 249.381 556.105 247.279C560.453 243.637 562.429 239.644 560.163 235.181C558.622 232.152 555.656 229.175 552.688 226.198C550.8 224.305 548.914 222.412 547.396 220.505C545.372 217.967 544.049 215.414 544.316 212.937C544.477 211.436 545.118 209.993 545.756 208.55C546.17 207.621 546.581 206.69 546.865 205.745C547.559 203.425 547.403 200.909 544.845 198.471C543.736 197.411 542.157 196.539 540.384 195.595C538.375 194.528 538.17 193.359 539.147 192.346C541.388 190.034 549.174 189.891 555.278 189.826C560.133 189.775 564.998 189.736 569.86 189.697C572.294 189.677 574.728 189.657 577.159 189.637C580.016 189.612 582.874 189.587 585.728 189.562L591.906 189.509L591.941 189.508L591.979 189.507C601.717 189.422 611.458 189.337 621.198 189.257C632.145 189.167 643.782 189.132 655.078 190.753C660.776 191.571 666.228 192.843 670.683 194.596C675.523 196.502 678.988 198.793 681.789 201.108C688.207 206.412 692.753 212.016 696.961 217.456C701.354 223.136 704.94 228.843 707.689 234.539L707.882 234.939C710.438 240.223 713.139 245.81 710.988 250.783C709.187 254.941 703.293 258.831 692.543 260.022C686.246 260.719 679.278 260.456 672.299 260.192C665.936 259.951 659.56 259.71 653.674 260.196C647.948 260.67 643.047 261.731 638.836 263.096C638.819 263.103 638.803 263.108 638.786 263.114C638.775 263.119 638.762 263.122 638.752 263.127ZM635.884 251.357C639.519 250.185 643.83 249.387 649.036 249.267C652.177 249.192 655.409 249.314 658.645 249.435C660.427 249.501 662.205 249.568 663.97 249.603C672.855 249.773 679.866 248.588 683.855 245.867C687.97 243.059 687.945 239.489 686.812 235.998C685.496 231.94 683.343 227.839 680.696 223.767C678 219.613 674.677 215.467 670.751 211.359L670.627 211.229C667.503 207.958 664.095 204.387 656.866 201.817C650.31 199.486 641.948 198.589 634.125 198.309C626.958 198.053 619.888 198.148 612.865 198.244L612.858 198.244C610.654 198.273 608.456 198.303 606.26 198.323C602.726 198.354 599.175 198.37 595.625 198.387C588.19 198.422 580.745 198.458 573.407 198.617C569.613 198.698 565.441 198.976 563.38 200.149C561.807 201.043 561.469 202.401 563.375 203.554C563.732 203.77 564.091 203.973 564.442 204.171C565.444 204.737 566.383 205.267 566.996 205.959C567.865 206.938 568.141 207.928 568.129 208.886C568.111 210.076 567.609 211.209 567.106 212.342C566.789 213.054 566.475 213.766 566.279 214.492C565.31 218.083 568.888 221.719 572.487 225.354C576.086 228.991 579.24 232.652 577.241 236.125C575.717 238.778 572.168 241.015 568.655 243.227L568.652 243.228C568.016 243.63 567.377 244.032 566.757 244.434C558.88 249.523 553.238 256.295 562.344 263.078C569.973 268.761 587.184 273.034 601.322 271.002C613.564 269.244 618.052 264.721 622.467 260.27C624.169 258.555 625.859 256.851 627.978 255.32C630.043 253.824 632.621 252.467 635.884 251.357ZM634.106 250.571C634.133 250.562 634.157 250.554 634.183 250.547C637.102 249.615 640.465 248.884 644.389 248.541C648.579 248.176 653.123 248.346 657.664 248.516C662.527 248.698 667.38 248.88 671.776 248.403C679.635 247.549 683.703 244.589 684.702 241.534C685.835 238.082 683.971 234.278 682.194 230.653L682.081 230.42C680.166 226.51 677.693 222.594 674.671 218.695C671.756 214.934 668.616 211.059 664.193 207.392C660.258 204.126 654.388 201.384 645.372 200.125C637.312 199.001 629.061 199.072 621.259 199.139L621.17 199.139C616.219 199.182 611.267 199.225 606.316 199.268C601.139 199.313 595.962 199.358 590.782 199.403C589.037 199.418 587.289 199.432 585.541 199.445C582.265 199.47 578.989 199.497 575.72 199.534C571.215 199.587 565.394 199.758 564.623 201.693C564.305 202.482 565.153 203.042 566.5 203.748C567.779 204.422 568.712 205.154 569.372 205.906C570.832 207.576 570.778 209.261 570.263 210.828C570.073 211.409 569.817 211.982 569.564 212.555C569.065 213.689 568.562 214.823 568.542 216.012C568.506 217.747 569.581 219.53 571.058 221.29C572.051 222.475 573.228 223.655 574.406 224.835C576.623 227.055 578.84 229.278 579.835 231.536C582.058 236.575 576.29 240.287 570.553 243.976C568.929 245.022 567.309 246.064 565.875 247.136C558.859 252.365 556.571 259.854 569.768 265.808C575.279 268.294 582.987 270.266 590.86 270.57C599.764 270.912 606.85 269.016 611.465 266.684C615.654 264.565 618.174 262.025 620.691 259.489C623.958 256.198 627.214 252.914 634.106 250.571ZM638.933 237.657C635.825 237.702 633.326 238.143 631.151 238.829C627.351 240.151 625.455 242.034 623.567 243.913C621.259 246.207 618.959 248.493 613.208 249.736C604.638 251.585 592.897 249.085 588.037 245.247C583.084 241.335 586.245 237.505 590.774 234.575C591.142 234.336 591.521 234.099 591.898 233.86C593.972 232.558 596.074 231.235 596.837 229.651C597.803 227.654 595.727 225.552 593.698 223.495C593.549 223.344 593.4 223.194 593.251 223.043C591.095 220.841 589.874 218.86 590.714 216.749C590.79 216.559 590.874 216.367 590.96 216.175C591.361 215.267 591.768 214.343 591.303 213.36C590.997 212.711 590.303 212.197 589.289 211.627C588.758 211.329 588.351 211.072 588.154 210.736C587.093 208.905 591.754 208.363 595.494 208.298C599.791 208.223 604.124 208.198 608.456 208.174C610.616 208.161 612.776 208.149 614.928 208.13C616.132 208.119 617.393 208.097 618.695 208.073C626.774 207.928 636.418 207.755 643.331 210.301C647.382 211.793 649.322 213.81 651.108 215.675C653.409 218.074 655.351 220.495 656.924 222.921C658.452 225.277 659.698 227.653 660.437 230C661.057 231.959 661.026 233.946 658.817 235.541C656.829 236.98 653.28 237.828 648.668 237.872C647.111 237.886 645.515 237.825 643.923 237.763C642.246 237.698 640.572 237.634 638.933 237.657ZM629.5 238.006C633.555 236.753 638.208 236.653 643.913 236.847C647.172 236.959 650.5 237.043 653.097 236.437C655.115 235.964 656.503 235.189 657.331 234.329C659.217 232.369 658.138 229.93 657.143 227.708C656.055 225.283 654.591 222.852 652.763 220.431C651.129 218.274 649.323 216.077 646.932 213.964C644.811 212.094 641.741 210.416 636.571 209.629C631.983 208.931 627.213 208.971 622.76 209.01L622.576 209.011C619.23 209.039 615.886 209.068 612.54 209.098C610.302 209.117 608.065 209.137 605.828 209.156C604.779 209.164 603.73 209.173 602.682 209.181C600.781 209.196 598.881 209.211 596.989 209.232L596.738 209.235C594.312 209.262 590.742 209.3 590.559 210.404C590.494 210.805 591.034 211.102 591.615 211.42C591.853 211.552 592.1 211.686 592.313 211.834C592.853 212.206 593.252 212.605 593.516 212.998C594.066 213.816 594.054 214.635 593.826 215.405C593.714 215.786 593.549 216.161 593.384 216.535C593.128 217.108 592.876 217.682 592.816 218.28C592.724 219.238 593.234 220.219 594.014 221.2C594.623 221.967 595.383 222.73 596.143 223.491C597.314 224.669 598.489 225.847 599.108 227.046C600.711 230.158 597.216 232.422 593.716 234.687C593.224 235.007 592.729 235.327 592.249 235.65C587.841 238.615 585.306 242.927 592.804 246.558C595.846 248.029 600.274 249.243 604.829 249.437C610.094 249.662 614.186 248.474 616.772 247.068C618.939 245.887 620.313 244.519 621.683 243.155C623.568 241.278 625.449 239.409 629.376 238.043C629.417 238.029 629.457 238.017 629.5 238.006Z" fill="url(#paint0_linear_3315_1433)"/>
<defs>
<linearGradient id="paint0_linear_3315_1433" x1="971.051" y1="90.3875" x2="831.541" y2="618.473" gradientUnits="userSpaceOnUse">
<stop offset="0.2424" stop-color="#1F3799"/>
<stop offset="0.464642" stop-color="#1F3799" stop-opacity="0.57"/>
<stop offset="0.929788" stop-color="#1F3799"/>
</linearGradient>
</defs>
</svg>
